<svg width="1440" height="1001" viewBox="0 0 1440 1001" fill="none" xmlns="http://www.w3.org/2000/svg">
<rect width="720" height="1001" fill="#E7A34A"/>
<mask id="mask0" mask-type="alpha" maskUnits="userSpaceOnUse" x="0" y="0" width="720" height="1001">
<rect width="720" height="1001" fill="white"/>
</mask>
<g mask="url(#mask0)">
</g>
<rect x="471" width="969" height="1001" fill="#E7A34A"/>
<mask id="mask1" mask-type="alpha" maskUnits="userSpaceOnUse" x="471" y="0" width="969" height="1001">
<rect x="471" width="969" height="1001" fill="white"/>
</mask>
<g mask="url(#mask1)">
<rect x="268.83" y="-70" width="1347.34" height="1088"/>
</g>
<mask id="mask2" mask-type="alpha" maskUnits="userSpaceOnUse" x="0" y="0" width="1440" height="1001">
<rect width="1440" height="1001" fill="white"/>
</mask>
<g mask="url(#mask2)">
<path fill-rule="evenodd" clip-rule="evenodd" d="M558.249 483.083C604.853 528.727 664.753 560.485 705.333 611.56C790.61 718.891 759.091 891.169 654.649 979.96C590.667 1034.35 503.933 1064.22 457.561 1134.24C399.603 1221.75 436.765 1356.77 531.341 1402.3C561.525 1416.83 595.525 1423.09 624.092 1440.59C671.549 1469.66 697.196 1529.14 689.096 1584.2C680.995 1639.27 641.18 1687.7 590.01 1709.59C553.156 1725.35 512.211 1728.1 473.445 1738.29C434.681 1748.49 394.905 1769.37 379.655 1806.44C353.992 1868.82 408.973 1933.43 420.727 1999.85C437.191 2092.89 354.328 2186.44 260.101 2193.5C238.847 2195.09 222.574 2195.09 201.32 2193.5C107.093 2186.44 24.2286 2092.89 40.6936 1999.85C52.4476 1933.43 107.429 1868.82 81.7656 1806.44C66.5156 1769.37 26.7396 1748.49 -12.0244 1738.29C-50.7904 1728.1 -91.7354 1725.35 -128.589 1709.59C-179.759 1687.7 -219.574 1639.27 -227.675 1584.2C-235.775 1529.14 -210.128 1469.66 -162.67 1440.59C-134.104 1423.09 -100.105 1416.83 -69.9204 1402.3C24.6556 1356.77 61.8166 1221.75 3.85858 1134.24C-42.5114 1064.22 -129.245 1034.35 -193.228 979.96C-297.67 891.169 -329.188 718.891 -243.912 611.56C-203.332 560.485 -143.433 528.727 -96.8274 483.083C-50.2234 437.44 -17.2354 364.562 -49.0634 307.621C-68.8814 272.166 -107.99 253.128 -140.404 228.65C-187.947 192.749 -224.719 138.396 -226.58 78.8505C-228.441 19.3035 -188.135 -42.6065 -129.56 -53.4795C-78.6674 -62.9275 -23.1174 -35.2115 24.0896 -56.4425C57.9766 -71.6845 76.6296 -107.501 101.202 -135.373C128.283 -166.093 165.994 -188.845 206.831 -191.91C226.204 -193.363 235.217 -193.363 254.59 -191.91C295.428 -188.845 333.138 -166.093 360.22 -135.373C384.791 -107.501 403.444 -71.6845 437.331 -56.4425C484.539 -35.2115 540.088 -62.9275 590.98 -53.4795C649.556 -42.6065 689.862 19.3035 688.001 78.8505C686.14 138.396 649.368 192.749 601.825 228.65C569.411 253.128 530.302 272.166 510.484 307.621C478.656 364.562 511.644 437.44 558.249 483.083Z" fill="#FEBF6D"/>
</g>
</svg>
