<svg width="1440" height="211" viewBox="0 0 1440 211" fill="none" xmlns="http://www.w3.org/2000/svg">
<rect width="1440" height="211" fill="#503850"/>
<mask id="mask0" mask-type="alpha" maskUnits="userSpaceOnUse" x="0" y="0" width="1440" height="211">
<rect width="1440" height="211" fill="white"/>
</mask>
<g mask="url(#mask0)">
<path fill-rule="evenodd" clip-rule="evenodd" d="M1475.02 -495H709.836C652.489 -495 606 -448.511 606 -391.164V-352.836C606 -295.489 652.489 -249 709.836 -249C767.184 -249 813.673 -202.511 813.673 -145.164V-145.163C813.673 -87.816 860.162 -41.327 917.509 -41.327C974.856 -41.327 1021.35 5.16199 1021.35 62.509V62.51C1021.35 119.857 1067.83 166.346 1125.18 166.346C1182.53 166.346 1229.02 212.834 1229.02 270.182C1229.02 327.53 1275.51 374.019 1332.85 374.019H1371.18C1428.53 374.019 1475.02 327.53 1475.02 270.182V-495Z" fill="#8A76B2"/>
</g>
</svg>
