<svg width="40" height="95" viewBox="0 0 40 95" fill="none" xmlns="http://www.w3.org/2000/svg">
<mask id="mask0" mask-type="alpha" maskUnits="userSpaceOnUse" x="0" y="1" width="40" height="79">
<path fill-rule="evenodd" clip-rule="evenodd" d="M0.000244141 1H39.843V79.5362H0.000244141V1Z" fill="white"/>
</mask>
<g mask="url(#mask0)">
<path fill-rule="evenodd" clip-rule="evenodd" d="M13.3702 11.347C13.5092 11.272 13.6262 11.172 13.7342 11.066C13.7552 11.045 13.7752 11.025 13.7962 11.003C13.8312 10.964 13.8662 10.924 13.8972 10.881C14.1062 10.611 14.2352 10.275 14.2352 9.906C14.2352 6.77 16.7862 4.218 19.9212 4.218C23.0572 4.218 25.6082 6.77 25.6082 9.906V9.907C25.6042 10.482 25.9042 11.039 26.4442 11.331C30.7532 13.66 33.4752 18.076 33.6502 22.939C33.5992 23.096 33.5642 23.261 33.5642 23.434V72.014C33.5642 72.902 34.2852 73.622 35.1732 73.622C35.1902 73.622 35.2072 73.618 35.2242 73.618C35.2422 73.618 35.2592 73.622 35.2762 73.622C36.0202 73.622 36.6262 74.228 36.6262 74.972C36.6262 75.717 36.0202 76.323 35.2762 76.323C35.2592 76.323 35.2422 76.327 35.2242 76.328C35.2072 76.327 35.1902 76.323 35.1732 76.323H4.56624C3.82224 76.323 3.21724 75.717 3.21724 74.972C3.21724 74.228 3.82224 73.622 4.56624 73.622C5.45424 73.622 6.17524 72.903 6.17524 72.014V23.433C6.17524 18.389 8.93224 13.757 13.3702 11.347ZM36.7822 70.681V23.983C36.8442 23.81 36.8852 23.626 36.8852 23.433C36.8852 17.502 33.7972 12.047 28.7752 8.969C28.3062 4.497 24.5152 1 19.9212 1C15.3282 1 11.5372 4.497 11.0672 8.97C6.04624 12.047 2.95824 17.505 2.95824 23.433V70.713C1.23424 71.367 0.000244141 73.022 0.000244141 74.971C0.000244141 77.379 1.87724 79.334 4.24224 79.505C4.34724 79.527 4.45524 79.537 4.56624 79.537H35.1732C35.1902 79.537 35.2072 79.534 35.2242 79.533C35.2422 79.534 35.2592 79.537 35.2762 79.537C37.7942 79.537 39.8432 77.491 39.8432 74.971C39.8422 72.985 38.5572 71.307 36.7822 70.681Z" fill="white"/>
</g>
<path fill-rule="evenodd" clip-rule="evenodd" d="M10.1333 37.9079C11.0213 37.9079 11.7413 37.1879 11.7413 36.2999V23.4319C11.7413 21.4019 12.4823 19.4469 13.8253 17.9279C14.4143 17.2619 14.3513 16.2459 13.6863 15.6579C13.0213 15.0699 12.0053 15.1299 11.4163 15.7979C9.55029 17.9049 8.52429 20.6159 8.52429 23.4319V36.2999C8.52529 37.1869 9.24529 37.9079 10.1333 37.9079Z" fill="white"/>
<mask id="mask1" mask-type="alpha" maskUnits="userSpaceOnUse" x="0" y="77" width="40" height="18">
<path fill-rule="evenodd" clip-rule="evenodd" d="M0 77.4756H39.8428V94.8966H0V77.4756Z" fill="white"/>
</mask>
<g mask="url(#mask1)">
<path fill-rule="evenodd" clip-rule="evenodd" d="M36.7818 86.0396V77.4756H33.5648V87.3736C33.5648 88.2616 34.2848 88.9816 35.1728 88.9816C35.1908 88.9816 35.2068 88.9776 35.2248 88.9766C35.2418 88.9776 35.2588 88.9816 35.2768 88.9816C36.0208 88.9816 36.6258 89.5866 36.6258 90.3316C36.6258 91.0756 36.0208 91.6826 35.2768 91.6826C35.2588 91.6826 35.2418 91.6856 35.2248 91.6866C35.2068 91.6856 35.1908 91.6826 35.1728 91.6826H4.56676C3.82276 91.6826 3.21676 91.0756 3.21676 90.3316C3.21676 89.5866 3.82276 88.9816 4.56676 88.9816C5.45476 88.9816 6.17576 88.2626 6.17576 87.3736V77.4756H2.95776V86.0716C1.23476 86.7266 -0.000244141 88.3806 -0.000244141 90.3306C-0.000244141 92.7376 1.87776 94.6936 4.24176 94.8636C4.34676 94.8856 4.45476 94.8966 4.56676 94.8966H35.1728C35.1908 94.8966 35.2068 94.8936 35.2248 94.8926C35.2418 94.8936 35.2588 94.8966 35.2768 94.8966C37.7938 94.8966 39.8428 92.8496 39.8428 90.3306C39.8418 88.3436 38.5568 86.6656 36.7818 86.0396Z" fill="white"/>
</g>
</svg>
