<svg width="107" height="95" viewBox="0 0 107 95" fill="none" xmlns="http://www.w3.org/2000/svg">
<mask id="mask0" mask-type="alpha" maskUnits="userSpaceOnUse" x="0" y="0" width="107" height="95">
<path fill-rule="evenodd" clip-rule="evenodd" d="M0.768311 0H106.768V95H0.768311V0Z" fill="white"/>
</mask>
<g mask="url(#mask0)">
<path fill-rule="evenodd" clip-rule="evenodd" d="M64.7293 70.588L50.8329 59.0722C50.7661 58.6234 50.7333 58.1628 50.7391 57.6952C50.7602 55.9911 51.3849 54.3199 52.4445 52.985C54.4535 50.4547 57.2876 49.6437 59.8873 50.1172C57.4365 51.6642 55.9198 53.7479 55.8436 56.12C55.6795 61.3201 62.4577 65.613 71.2766 65.8931C73.9455 65.9763 76.4502 65.6833 78.6503 65.088C83.7243 63.7168 87.1831 60.7446 87.298 57.1185V57.1174C87.4164 53.394 83.9634 50.1441 78.7616 48.4916C78.5166 47.3361 78.0267 46.1699 77.3738 45.2312C76.9073 44.562 76.4209 43.9338 75.924 43.3232L78.4135 42.6493L100.466 60.9251L64.7293 70.588ZM65.2626 53.7116C67.1743 56.7236 70.3471 57.9167 73.6829 56.8806C75.8372 56.2114 77.5579 54.6047 78.3889 52.6111C81.4305 53.7374 83.314 55.4508 83.2648 56.9896C83.1863 59.4637 78.0959 62.0713 71.4044 61.8603C64.7105 61.6482 59.7983 58.7218 59.8768 56.2478C59.9213 54.8414 61.5869 53.3917 64.2452 52.4412C64.6203 52.8268 64.9672 53.2463 65.2626 53.7116ZM47.0529 33.1059C46.8513 34.0306 46.4821 34.4314 45.6182 34.8428C42.6727 36.2457 39.8128 37.829 36.7466 39.4358C38.3372 34.4104 39.7402 29.2642 41.5897 24.2868C44.1308 17.4472 46.2148 12.7944 49.172 6.21029C49.8343 4.73595 51.0884 4.13004 52.4539 4.63399C53.7819 5.12036 54.4007 6.45289 53.9272 8.00107C52.4984 12.669 51.5033 15.0564 50.207 19.7595C48.995 24.1649 48.0351 28.6407 47.0529 33.1059ZM106.039 60.3028L80.1822 38.8767C79.6782 38.4584 79.0019 38.3119 78.3689 38.483L72.7663 39.9972C67.5376 35.3304 61.0313 33.181 53.4162 33.297C52.8887 33.3052 52.3484 33.3966 51.821 33.4107C51.7413 33.4118 51.6205 33.5138 51.3181 33.4025C52.2863 29.4681 53.204 25.2631 54.3222 21.344C55.6924 16.5424 56.6852 14.0602 58.1972 9.27852C59.1653 6.21733 57.9874 2.89361 55.3326 1.08876C55.1403 0.958675 55.0395 0.886013 54.7395 0.733656C53.769 0.338701 53.0177 0.147669 51.9241 0C51.3545 0.00117197 50.9817 0.0105478 50.4402 0.110166C48.0222 0.549656 45.9687 2.16229 44.9079 4.37967C44.4743 5.28678 44.6759 4.79924 44.1683 6.02512C42.5778 9.8692 40.9029 13.5914 39.1846 17.739C39.0709 17.0405 38.9935 16.6374 38.9431 16.2307C38.5376 12.914 38.2035 9.58675 37.7171 6.28179C37.3327 3.7011 35.8558 1.82594 33.4073 0.874293C30.7724 -0.152357 28.2876 0.209784 26.1438 2.12831C24.5474 3.5546 23.7563 5.30436 23.9555 7.52173C24.2286 10.6017 24.3658 13.6934 24.5826 17.0921C24.1231 16.6596 23.9251 16.492 23.7457 16.3045C20.0302 12.4546 15.6899 9.51409 10.7976 7.36703C7.27542 5.8212 3.61731 6.8959 1.68452 10.0485C-0.00564116 12.8062 0.653077 16.9925 3.57394 19.2251C10.4764 24.499 14.7475 31.5554 16.5631 40.0663C17.7235 45.5054 17.3308 50.8801 16.1165 56.2829C14.6467 62.8366 13.0644 69.334 10.4788 75.5267C10.0228 76.6179 10.4776 77.8719 11.5465 78.377C12.6659 78.9044 14.015 78.4086 14.4967 77.2695C16.794 71.835 18.5932 66.1545 19.8098 60.1879C20.8307 55.1836 22.0497 50.2191 21.6887 45.039C20.8436 32.9946 15.6981 23.2051 6.30024 15.6517C5.35905 14.8946 4.93006 14.0426 5.26059 12.907C5.5712 11.8323 6.36822 11.156 7.47702 11.1349C8.15098 11.1244 8.87182 11.3658 9.50006 11.6529C15.3535 14.3157 20.2048 18.2242 23.9086 23.4946C24.3025 24.056 24.5873 24.8717 24.5381 25.5385C24.088 31.8554 23.5641 38.1689 23.0378 44.4811C22.9042 46.0785 23.557 47.1169 24.9061 47.288C26.186 47.4521 27.1776 46.6458 27.3781 45.1234C27.7801 42.068 28.1891 39.0127 28.4646 35.9445C29.3179 26.4093 29.2276 16.8729 28.3966 7.34242C28.3017 6.23725 28.7459 5.56571 29.625 5.0934C31.3046 4.19215 33.1483 5.27037 33.3698 7.39282C34.066 14.0403 34.7224 20.6924 35.3202 27.3504C35.3975 28.2141 35.2827 29.0837 35.0072 29.9065C32.363 37.7927 30.9823 45.9731 29.2757 54.0761C28.9252 55.7462 29.6883 56.8818 31.028 57.0763C32.431 57.2803 33.371 56.3708 33.63 54.5355C33.8234 53.1631 34.0824 51.7896 34.6544 50.5274C42.2074 33.8654 64.9332 33.8666 74.0322 48.1799C74.9605 49.6378 74.5069 51.4087 73.0523 52.3052C71.5767 53.2159 70.0518 52.8443 69.032 51.3665C68.2901 50.2906 67.5306 49.2089 66.4839 48.4272C58.0413 42.1184 48.2812 47.0583 46.5723 55.1602C46.4774 55.609 46.4129 56.0614 46.3637 56.515C46.2969 57.1291 46.284 57.7362 46.3027 58.3362C46.3098 58.6913 46.3461 59.0417 46.3789 59.3945C46.3965 59.5445 46.4094 59.6969 46.4317 59.8446C46.4692 60.1469 46.4797 60.4528 46.5371 60.7505L46.6145 60.8161C47.4912 64.5688 50.071 67.7589 53.8956 69.4618C55.2951 70.0829 56.766 70.397 58.2347 70.4451L62.9606 74.3606C63.4646 74.779 64.1409 74.9255 64.7738 74.7556L70.4514 73.2203C67.3278 76.2276 63.2735 77.9 58.4304 78.4262C55.4029 78.7567 52.4715 78.2082 49.5623 77.3914C48.232 77.0187 47.2146 77.6 46.8313 78.786C46.4399 79.9978 47.0365 81.1065 48.3351 81.587C48.6962 81.7195 49.0595 81.8472 49.4334 81.982C49.3314 82.3722 49.2904 82.6793 49.172 82.9571C48.2074 85.1991 46.3578 89.3736 45.2478 91.8582C44.752 92.9681 45.2373 94.2666 46.3355 94.7846C47.4572 95.3144 48.811 94.8339 49.3244 93.7052C50.8235 90.4097 52.1808 87.0437 53.6319 83.7235C53.7526 83.4446 53.8991 83.1774 54.0608 82.8504C57.6135 83.1282 61.1075 82.861 64.4902 81.7324C70.2475 79.8115 74.6604 76.3917 77.5579 71.2983L105.278 63.8023C106.005 63.6054 106.563 63.0206 106.722 62.2846C106.883 61.5486 106.619 60.7833 106.039 60.3028Z" fill="white"/>
</g>
</svg>
