<svg width="70" height="67" viewBox="0 0 70 67" fill="none" xmlns="http://www.w3.org/2000/svg">
<path fill-rule="evenodd" clip-rule="evenodd" d="M65.752 59.129C65.752 61.181 64.049 62.851 61.955 62.851H7.212C5.153 62.851 3.415 61.147 3.415 59.129V26.845H65.677V58.382H65.752V59.129ZM3.415 12.567C3.415 10.515 5.118 8.845 7.212 8.845H18.297V12.567C18.297 13.493 19.079 14.275 20.005 14.275C20.931 14.275 21.713 13.493 21.713 12.567V8.845H47.38V12.567C47.38 13.493 48.161 14.275 49.087 14.275C50.013 14.275 50.795 13.493 50.795 12.567V8.845H61.881C63.939 8.845 65.677 10.549 65.677 12.567V22.739L65.186 23.355H3.415V12.567ZM69.167 12.567C69.167 8.631 65.932 5.43 61.955 5.43H50.869V1.708C50.869 0.782 50.087 0 49.161 0C48.235 0 47.454 0.782 47.454 1.708V5.43H21.787V1.708C21.787 0.782 21.005 0 20.079 0C19.153 0 18.372 0.782 18.372 1.708V5.43H7.212C3.235 5.43 0 8.665 0 12.641V59.203C0 63.18 3.235 66.414 7.212 66.414H61.955C65.932 66.414 69.167 63.18 69.167 59.203V12.567Z" fill="white"/>
<path fill-rule="evenodd" clip-rule="evenodd" d="M46.9907 38.1921C46.9817 37.7141 46.7717 37.2611 46.3997 36.9161C45.7067 36.2761 44.6117 36.3261 43.9587 37.0261L31.8837 49.9591L25.1637 42.7541C24.8147 42.4051 24.3487 42.2291 23.8827 42.2291C23.4617 42.2291 23.0397 42.3721 22.6997 42.6631C22.0397 43.3271 21.9967 44.4161 22.6127 45.0841L30.6537 53.6471C30.9617 54.0051 31.4197 54.2161 31.8837 54.2161C32.3467 54.2161 32.8027 54.0081 33.1007 53.6601L46.5117 39.3541C46.8297 39.0351 46.9987 38.6231 46.9907 38.1921Z" fill="white"/>
</svg>
