<svg width="42" height="85" viewBox="0 0 42 85" fill="none" xmlns="http://www.w3.org/2000/svg">
<path fill-rule="evenodd" clip-rule="evenodd" d="M17.129 61.7705C15.668 61.7705 14.48 60.5835 14.48 59.1225C14.48 57.7385 16.056 53.9795 17.129 52.0645C18.202 53.9795 19.778 57.7375 19.778 59.1225C19.779 60.5825 18.59 61.7705 17.129 61.7705ZM13.238 52.8815C12.798 53.8625 11.361 57.2125 11.361 59.1215C11.361 62.3015 13.949 64.8905 17.13 64.8905C20.311 64.8905 22.899 62.3025 22.899 59.1215C22.899 57.2125 21.462 53.8625 21.022 52.8815C19.043 48.4725 18.014 48.1035 17.13 48.1035C16.246 48.1035 15.217 48.4735 13.238 52.8815Z" fill="white"/>
<mask id="mask0" mask-type="alpha" maskUnits="userSpaceOnUse" x="0" y="1" width="42" height="84">
<path fill-rule="evenodd" clip-rule="evenodd" d="M0.00012207 1H41.856V84.2759H0.00012207V1Z" fill="white"/>
</mask>
<g mask="url(#mask0)">
<path fill-rule="evenodd" clip-rule="evenodd" d="M12.6221 6.894H10.9041V4.133L31.8381 4.122C31.9341 4.133 32.0321 4.137 32.1321 4.13C33.1491 4.067 36.1201 4.233 37.6651 5.688C38.0291 6.031 38.2971 6.431 38.4751 6.894H21.2811H12.6221ZM18.3131 16.717H15.8971L15.7921 10.014H18.2091L18.3131 16.717ZM23.0471 19.837V25.201H10.9041V19.837H12.8251H21.4831H23.0471ZM31.1391 34.546V41.839C29.8271 42.61 24.5721 44.156 17.1291 44.156C9.68612 44.156 4.43112 42.61 3.11912 41.839V34.546C3.11912 31.113 5.91212 28.321 9.34412 28.321H24.9141C28.3461 28.321 31.1391 31.114 31.1391 34.546ZM3.12012 78.837V67.29C6.98812 68.778 13.5111 69.34 17.1301 69.34C20.7491 69.34 27.2721 68.778 31.1401 67.29V78.837C29.8281 79.608 24.5731 81.154 17.1301 81.154C9.68712 81.154 4.43112 79.608 3.12012 78.837ZM31.1391 63.903C29.8281 64.674 24.5731 66.22 17.1291 66.22C9.68512 66.22 4.43112 64.674 3.11912 63.903V45.226C6.98712 46.715 13.5101 47.277 17.1291 47.277C20.7481 47.277 27.2711 46.715 31.1391 45.226V63.903ZM39.7921 3.406C37.4311 1.194 33.7551 0.997 32.4301 1.002C32.4231 1.002 32.4161 1 32.4081 1H32.4071L10.6861 1.013C9.08512 1.013 7.78412 2.315 7.78412 3.916V7.112C7.78412 8.713 9.08612 10.015 10.6861 10.015H12.6701L12.7751 16.718H10.7571C9.11712 16.718 7.78412 18.051 7.78412 19.69V25.343C3.37312 26.089 0.00012207 29.927 0.00012207 34.547V79.379C0.00012207 79.487 0.0111221 79.592 0.0321221 79.694C0.684122 83.114 11.9201 84.276 17.1291 84.276C22.3381 84.276 33.5741 83.114 34.2261 79.694C34.2471 79.592 34.2581 79.487 34.2581 79.379V34.546C34.2581 29.819 30.7271 25.91 26.1661 25.295V19.689C26.1661 18.05 24.8331 16.717 23.1941 16.717H21.4331L21.3281 10.014H40.2961C41.1571 10.014 41.8561 9.315 41.8561 8.455C41.8571 6.389 41.1631 4.691 39.7921 3.406Z" fill="white"/>
</g>
</svg>
