<svg width="71" height="81" viewBox="0 0 71 81" fill="none" xmlns="http://www.w3.org/2000/svg">
<mask id="mask0" mask-type="alpha" maskUnits="userSpaceOnUse" x="0" y="0" width="71" height="81">
<path fill-rule="evenodd" clip-rule="evenodd" d="M0.00012207 0.249023H70.3261V80.9995H0.00012207V0.249023Z" fill="white"/>
</mask>
<g mask="url(#mask0)">
<path fill-rule="evenodd" clip-rule="evenodd" d="M62.9422 76.5812L58.8716 72.5113C58.4456 72.0839 57.8676 71.9057 57.3083 71.9605C56.7491 71.9044 56.1698 72.0839 55.7438 72.5113L51.6757 76.5812L47.6137 72.5188L47.6075 72.5126C47.5365 72.4403 47.4568 72.3817 47.3758 72.3231C46.7804 71.887 45.9969 71.8359 45.3529 72.1649C45.1761 72.2546 45.0066 72.3655 44.8584 72.5126L40.7927 76.5825L36.7258 72.5126C36.2973 72.0864 35.7193 71.9082 35.1601 71.963C34.6008 71.9082 34.0228 72.0864 33.5943 72.5126L29.5274 76.5825L25.4605 72.5126C24.7019 71.7561 23.47 71.7561 22.7114 72.5126L18.6445 76.5825L14.5775 72.5126C14.1491 72.0864 13.5711 71.9082 13.0118 71.963C12.4525 71.9082 11.8746 72.0864 11.4461 72.5126L7.37914 76.5825L3.88021 73.082V8.14746L7.37914 4.64701L11.4461 8.71695C11.826 9.09578 12.323 9.2852 12.8212 9.2852C12.886 9.2852 12.9508 9.27273 13.0155 9.2665C13.5736 9.32009 14.1515 9.14314 14.5788 8.71695L18.6457 4.64701L22.7126 8.71695C23.0926 9.09578 23.5896 9.2852 24.0878 9.2852C24.5861 9.2852 25.0831 9.09578 25.463 8.71695L29.5299 4.64701L33.5968 8.71695C33.9767 9.09578 34.4737 9.2852 34.972 9.2852C35.0368 9.2852 35.1003 9.27273 35.1663 9.2665C35.7231 9.32009 36.3023 9.14314 36.7295 8.71695L40.7965 4.64701L44.8634 8.71695C45.0652 8.91883 45.3031 9.06338 45.5547 9.15684C46.1514 9.38115 46.8327 9.30015 47.3658 8.91758C47.4505 8.85652 47.5352 8.79297 47.6125 8.71695C47.615 8.71446 47.6162 8.71197 47.6175 8.71072L51.6782 4.64826L55.7476 8.7182C56.1262 9.09827 56.6232 9.28644 57.1215 9.28644C57.185 9.28644 57.2473 9.27398 57.3096 9.26775C57.8701 9.32383 58.4481 9.14687 58.8766 8.71695L62.9447 4.64701L66.4449 8.14746V73.082L62.9422 76.5812ZM70.0883 74.8005C70.1182 74.7444 70.1531 74.6908 70.178 74.6323C70.2054 74.5637 70.2216 74.4939 70.2415 74.4254C70.2565 74.3731 70.2777 74.3232 70.2864 74.2696C70.3125 74.1425 70.3262 74.0142 70.3262 73.8858V7.3412C70.3262 7.21284 70.3125 7.08449 70.2864 6.95863C70.2764 6.90504 70.2565 6.8552 70.2415 6.80286C70.2216 6.73307 70.2054 6.66329 70.178 6.596C70.1531 6.53618 70.1195 6.4826 70.0883 6.42652C70.0584 6.37169 70.0335 6.31437 69.9986 6.26078C69.9414 6.1748 69.8716 6.09629 69.8018 6.02027C69.7857 6.00283 69.7744 5.98289 69.757 5.96544L64.7808 0.988304C63.7992 0.0025965 62.0803 0.00758111 61.1075 0.984566L57.3096 4.78284L53.5154 0.988304C52.5364 0.0025965 50.8149 0.00633496 49.8409 0.984566L46.2361 4.59093L42.6313 0.984566C41.6485 0.00384265 39.9407 0.00384265 38.9579 0.984566L35.1626 4.7816L31.3672 0.984566C30.3844 0.00384265 28.6766 0.00384265 27.6939 0.984566L24.0891 4.59093L20.4842 0.984566C19.5015 0.00384265 17.7937 0.00384265 16.8109 0.984566L13.0155 4.7816L9.22016 0.984566C8.23737 0.00384265 6.52963 0.00384265 5.54684 0.984566L0.568122 5.96544C0.513315 6.02027 0.470964 6.08258 0.424876 6.14115C0.393736 6.18103 0.357613 6.21592 0.33021 6.25704C0.285368 6.32309 0.252982 6.39537 0.216859 6.46515C0.195683 6.50752 0.16828 6.5474 0.149596 6.59226C0.11721 6.66952 0.09728 6.74927 0.0761045 6.82903C0.064894 6.8714 0.0474554 6.91252 0.0387361 6.95613C0.0138238 7.08324 0.00012207 7.21284 0.00012207 7.34244V73.8821C0.00012207 74.0117 0.0138238 74.1413 0.0387361 74.2696C0.0474554 74.312 0.064894 74.3531 0.0761045 74.3955C0.09728 74.4765 0.11721 74.555 0.149596 74.6335C0.16828 74.6784 0.194438 74.717 0.216859 74.7594C0.252982 74.8304 0.285368 74.9014 0.33021 74.9675C0.358859 75.0086 0.393736 75.046 0.424876 75.0834C0.47221 75.1432 0.513315 75.2055 0.568122 75.2591L5.54684 80.2412C6.03886 80.7309 6.69031 81.0001 7.38412 81.0001C8.07793 81.0001 8.72939 80.7297 9.2214 80.2412L13.0168 76.4442L16.8122 80.2412C17.3042 80.7309 17.9556 81.0001 18.6495 81.0001C19.3433 81.0001 19.9947 80.7297 20.4867 80.2412L24.0915 76.6336L27.6964 80.2412C28.1884 80.7309 28.8398 81.0001 29.5336 81.0001C30.2274 81.0001 30.8789 80.7297 31.3709 80.2412L35.1663 76.4442L38.9617 80.2412C39.4537 80.7309 40.1052 81.0001 40.799 81.0001C41.4928 81.0001 42.1442 80.7297 42.6362 80.2412L46.2411 76.6336L49.8421 80.2375C50.3341 80.7297 50.9868 81.0001 51.6819 81.0001C52.3782 81.0001 53.0309 80.7284 53.5179 80.2412L57.3146 76.4429L61.1099 80.2375C61.6007 80.7297 62.2534 81.0001 62.9497 81.0001C63.6435 81.0001 64.2975 80.7284 64.7845 80.2412L69.7645 75.2591C69.7819 75.2416 69.7931 75.2217 69.8093 75.2055C69.8803 75.1282 69.9476 75.0497 70.0061 74.9637C70.0335 74.9126 70.0584 74.8566 70.0883 74.8005Z" fill="white"/>
</g>
<path fill-rule="evenodd" clip-rule="evenodd" d="M34.9994 62.144C22.7899 62.144 12.8571 52.211 12.8571 40.0012C12.8571 27.7915 22.7899 17.8584 34.9994 17.8584C47.2089 17.8584 57.1429 27.7915 57.1429 40.0012C57.1429 52.211 47.2089 62.144 34.9994 62.144ZM34.9994 14C20.6629 14 9 25.6644 9 40C9 54.3356 20.6641 66 34.9994 66C49.3371 66 61 54.3356 61 40C61 25.6644 49.3371 14 34.9994 14Z" fill="white"/>
<path fill-rule="evenodd" clip-rule="evenodd" d="M35.0197 55.038C26.7185 55.038 19.9632 48.2841 19.9632 39.9816C19.9632 38.8879 19.0766 38 17.9816 38C16.8866 38 16 38.8866 16 39.9816C16 50.4689 24.5311 59 35.0184 59C36.1121 59 37 58.1134 37 57.0184C37 55.9234 36.1134 55.038 35.0197 55.038Z" fill="white"/>
</svg>
