<svg width="80" height="104" viewBox="0 0 80 104" fill="none" xmlns="http://www.w3.org/2000/svg">
<path fill-rule="evenodd" clip-rule="evenodd" d="M3 100.773H77V32.9004H3V100.773ZM78.5 103.773H1.5C0.672 103.773 0 103.101 0 102.273V31.4004C0 30.5724 0.672 29.9004 1.5 29.9004H78.5C79.328 29.9004 80 30.5724 80 31.4004V102.273C80 103.101 79.328 103.773 78.5 103.773Z" fill="white"/>
<path fill-rule="evenodd" clip-rule="evenodd" d="M39.8447 11.3663C28.7787 11.3663 19.7027 19.9673 18.8997 30.8312H22.0187C22.8137 21.6873 30.4987 14.4862 39.8447 14.4862C49.1907 14.4862 56.8767 21.6873 57.6717 30.8312H60.7907C59.9867 19.9673 50.9117 11.3663 39.8447 11.3663ZM68.1987 5.38425C68.1897 5.34125 68.1737 5.30125 68.1617 5.25925C68.1457 5.20225 68.1327 5.14625 68.1107 5.09325C68.0907 5.04525 68.0637 5.00225 68.0387 4.95725C68.0147 4.91325 67.9947 4.86625 67.9667 4.82325C67.9207 4.75525 67.8657 4.69125 67.8087 4.63125C67.7957 4.61625 67.7867 4.60025 67.7727 4.58725L63.7777 0.59325C62.9907 -0.19775 61.6097 -0.19475 60.8287 0.59025L57.7797 3.63725L54.7337 0.59325C53.9477 -0.19775 52.5657 -0.19575 51.7847 0.59025L48.8897 3.48325L45.9957 0.59025C45.2067 -0.19675 43.8357 -0.19675 43.0467 0.59025L39.9997 3.63725L36.9527 0.59025C36.1637 -0.19675 34.7927 -0.19675 34.0037 0.59025L31.1097 3.48325L28.2157 0.59025C27.4267 -0.19675 26.0557 -0.19675 25.2667 0.59025L22.2197 3.63725L19.1727 0.59025C18.3837 -0.19675 17.0127 -0.19675 16.2237 0.59025L12.2267 4.58725C12.1827 4.63125 12.1487 4.68025 12.1117 4.72725C12.0867 4.76025 12.0577 4.78825 12.0357 4.82025C11.9997 4.87425 11.9737 4.93125 11.9447 4.98725C11.9277 5.02125 11.9057 5.05425 11.8907 5.09025C11.8647 5.15125 11.8487 5.21625 11.8317 5.27925C11.8227 5.31325 11.8087 5.34625 11.8017 5.38225C11.7817 5.48325 11.7707 5.58825 11.7707 5.69125V30.8312H14.8857V6.33825L17.6947 3.52825L20.9597 6.79525C21.2647 7.09825 21.6637 7.25125 22.0637 7.25125C22.1157 7.25125 22.1677 7.24025 22.2197 7.23525C22.6677 7.27825 23.1317 7.13725 23.4747 6.79525L26.7397 3.52825L30.0047 6.79525C30.3097 7.09825 30.7087 7.25125 31.1087 7.25125C31.5087 7.25125 31.9077 7.09825 32.2127 6.79525L35.4777 3.52825L38.7427 6.79525C39.0477 7.09825 39.4467 7.25125 39.8467 7.25125C39.8987 7.25125 39.9507 7.24025 40.0027 7.23525C40.4507 7.27825 40.9147 7.13725 41.2577 6.79525L44.5227 3.52825L47.7877 6.79525C47.9507 6.95725 48.1407 7.07225 48.3427 7.14725C48.8217 7.32725 49.3687 7.26225 49.7967 6.95625C49.8657 6.90625 49.9327 6.85525 49.9947 6.79525C49.9967 6.79325 49.9977 6.79125 49.9987 6.79025L53.2587 3.52925L56.5257 6.79625C56.8297 7.10025 57.2287 7.25225 57.6287 7.25225C57.6797 7.25225 57.7297 7.24125 57.7797 7.23625C58.2297 7.28125 58.6937 7.13925 59.0377 6.79525L62.3037 3.52825L65.1137 6.33825V30.8312H68.2297V5.69025C68.2297 5.58825 68.2187 5.48425 68.1987 5.38425Z" fill="white"/>
<path fill-rule="evenodd" clip-rule="evenodd" d="M14.385 72.7734H65.615V59.7734H14.385V72.7734ZM67.115 75.7734H12.885C12.057 75.7734 11.385 75.1014 11.385 74.2734V58.2734C11.385 57.4454 12.057 56.7734 12.885 56.7734H67.115C67.943 56.7734 68.615 57.4454 68.615 58.2734V74.2734C68.615 75.1014 67.943 75.7734 67.115 75.7734Z" fill="white"/>
</svg>
