<svg width="143" height="70" viewBox="0 0 143 70" fill="none" xmlns="http://www.w3.org/2000/svg">
<mask id="mask0" mask-type="alpha" maskUnits="userSpaceOnUse" x="0" y="1" width="71" height="69">
<path fill-rule="evenodd" clip-rule="evenodd" d="M0.000244141 1H70.3875V69.882H0.000244141V1Z" fill="white"/>
</mask>
<g mask="url(#mask0)">
<path fill-rule="evenodd" clip-rule="evenodd" d="M3.49824 49.944L7.48824 47.618C7.90824 47.373 8.16524 46.961 8.23624 46.515C8.39324 46.093 8.37324 45.609 8.12724 45.188L5.80224 41.198L9.78824 38.875C9.78924 38.874 9.79124 38.874 9.79224 38.873C10.1362 38.672 10.3692 38.358 10.4832 38.007C10.4922 37.978 10.5072 37.951 10.5142 37.922C10.5262 37.877 10.5292 37.83 10.5372 37.784C10.5462 37.732 10.5592 37.68 10.5632 37.627C10.5832 37.327 10.5162 37.018 10.3542 36.74L8.02824 32.751L11.8112 30.545C12.0262 30.47 12.2302 30.352 12.4022 30.181C13.0092 29.572 13.0092 28.583 12.4022 27.974L9.13624 24.709L12.4022 21.444C13.0092 20.835 13.0092 19.846 12.4022 19.237L9.13624 15.972L12.4022 12.707C12.7452 12.363 12.8872 11.899 12.8432 11.45C12.8872 11.001 12.7452 10.537 12.4022 10.193L9.13624 6.928L11.9452 4.119H64.0522L66.8612 6.928L63.5952 10.193C63.2912 10.498 63.1392 10.897 63.1392 11.297C63.1392 11.349 63.1492 11.401 63.1542 11.453C63.1112 11.901 63.2532 12.365 63.5952 12.708L66.8612 15.973L63.5952 19.238C63.2912 19.543 63.1392 19.942 63.1392 20.342C63.1392 20.742 63.2912 21.141 63.5952 21.446L66.8612 24.711L64.0522 27.52H58.5112C56.4212 18.114 48.0252 11.055 37.9992 11.055C26.4052 11.055 16.9742 20.487 16.9742 32.079C16.9742 43.671 26.4062 53.103 37.9992 53.103C45.7912 53.103 52.5922 48.832 56.2232 42.517L61.8282 43.994L63.8482 47.46L59.8622 49.783C59.8612 49.784 59.8592 49.784 59.8582 49.785C59.7452 49.851 59.6482 49.932 59.5582 50.019C59.5332 50.044 59.5112 50.07 59.4882 50.096C59.4262 50.165 59.3722 50.237 59.3242 50.315C59.3052 50.345 59.2862 50.374 59.2692 50.405C59.2132 50.51 59.1662 50.62 59.1362 50.734C59.1352 50.738 59.1342 50.743 59.1332 50.747C59.1042 50.859 59.0922 50.975 59.0892 51.091C59.0892 51.105 59.0842 51.119 59.0842 51.133C59.0842 51.156 59.0922 51.178 59.0932 51.2C59.0972 51.288 59.1082 51.376 59.1272 51.463C59.1352 51.499 59.1412 51.534 59.1522 51.569C59.1872 51.688 59.2322 51.805 59.2972 51.917L61.6232 55.906L57.6342 58.231C57.2212 58.471 56.9712 58.874 56.8942 59.309C56.7262 59.737 56.7432 60.233 56.9942 60.661L59.3192 64.651L55.8892 66.651L5.49824 53.375L3.49824 49.944ZM38.0002 20.225C38.8612 20.225 39.5602 19.527 39.5602 18.665C39.5602 17.803 38.8622 17.105 38.0002 17.105C29.7442 17.105 23.0272 23.821 23.0272 32.077C23.0272 32.641 23.3292 33.13 23.7772 33.404C23.9712 33.791 24.3062 34.106 24.7582 34.225L53.0822 41.687C49.8982 46.665 44.3352 49.982 38.0002 49.982C28.1272 49.982 20.0942 41.95 20.0942 32.077C20.0942 22.204 28.1272 14.172 38.0002 14.172C46.2952 14.172 53.2702 19.85 55.2952 27.518H27.0612C28.8512 23.239 33.0792 20.225 38.0002 20.225ZM55.9052 32.077C55.9052 34.475 55.4232 36.76 54.5652 38.851L26.1822 31.373C26.1972 31.126 26.2132 30.879 26.2432 30.636H55.8322C55.8702 31.113 55.9052 31.591 55.9052 32.077ZM56.0182 69.881C56.0772 69.885 56.1352 69.879 56.1932 69.876C56.2362 69.874 56.2792 69.876 56.3222 69.87C56.3922 69.861 56.4592 69.841 56.5262 69.823C56.5572 69.815 56.5882 69.811 56.6182 69.8C56.7182 69.766 56.8142 69.722 56.9042 69.669L61.7832 66.826C62.2632 66.546 62.6072 66.095 62.7492 65.555C62.8932 65.014 62.8152 64.453 62.5342 63.974L60.3632 60.25L64.0872 58.08C65.0802 57.499 65.4152 56.222 64.8382 55.228L62.7762 51.692L66.3162 49.629C67.3042 49.05 67.6403 47.772 67.0632 46.78L64.5092 42.398C64.4012 41.825 63.9802 41.331 63.3782 41.172L57.5892 39.647C58.5022 37.294 59.0222 34.747 59.0222 32.075C59.0222 31.589 58.9822 31.113 58.9492 30.635H64.6952C64.7992 30.635 64.9032 30.624 65.0052 30.604C65.0402 30.597 65.0732 30.583 65.1072 30.574C65.1712 30.557 65.2352 30.541 65.2972 30.515C65.3332 30.5 65.3652 30.479 65.3992 30.461C65.4562 30.432 65.5132 30.406 65.5662 30.37C65.5992 30.347 65.6282 30.319 65.6592 30.294C65.7072 30.256 65.7562 30.223 65.8002 30.179L69.7972 26.182C70.5842 25.393 70.5842 24.022 69.7972 23.233L66.9032 20.339L69.7972 17.445C70.5842 16.656 70.5842 15.285 69.7972 14.496L66.7502 11.449L69.7972 8.402C70.5842 7.613 70.5842 6.242 69.7972 5.453L65.8002 1.456C65.7562 1.412 65.7062 1.378 65.6592 1.341C65.6272 1.316 65.5992 1.287 65.5662 1.265C65.5132 1.229 65.4552 1.203 65.3992 1.174C65.3652 1.157 65.3332 1.135 65.2972 1.12C65.2352 1.094 65.1712 1.078 65.1072 1.061C65.0732 1.052 65.0402 1.038 65.0052 1.031C64.9032 1.011 64.7992 1 64.6952 1H11.3012C11.1972 1 11.0932 1.011 10.9912 1.031C10.9562 1.038 10.9232 1.052 10.8892 1.061C10.8252 1.078 10.7612 1.094 10.6992 1.12C10.6632 1.135 10.6312 1.156 10.5972 1.174C10.5402 1.203 10.4832 1.229 10.4302 1.265C10.3972 1.288 10.3682 1.316 10.3372 1.341C10.2892 1.379 10.2402 1.412 10.1962 1.456L6.19924 5.453C5.80524 5.848 5.58924 6.371 5.58924 6.928C5.58924 7.485 5.80624 8.008 6.19924 8.403L9.24624 11.45L6.19924 14.497C5.80524 14.892 5.58924 15.415 5.58924 15.972C5.58924 16.529 5.80624 17.052 6.19924 17.447L9.09324 20.341L6.19924 23.235C5.80524 23.63 5.58924 24.153 5.58924 24.71C5.58924 25.267 5.80624 25.79 6.19924 26.185L8.74024 28.726L5.56324 30.577C4.90024 30.965 4.52924 31.664 4.52924 32.382C4.52924 32.738 4.62124 33.099 4.81224 33.429L6.87424 36.965L3.33424 39.028C2.67224 39.416 2.30324 40.115 2.30324 40.832C2.30324 41.188 2.39524 41.549 2.58724 41.877L4.75824 45.601L1.03524 47.772C0.371244 48.159 0.000244141 48.859 0.000244141 49.577C0.000244141 49.933 0.0922441 50.294 0.283244 50.624L3.12824 55.505C3.15224 55.545 3.18224 55.578 3.20924 55.616C3.22724 55.642 3.24424 55.667 3.26424 55.692C3.35824 55.809 3.46424 55.911 3.58224 55.994C3.60124 56.008 3.62324 56.018 3.64324 56.031C3.77824 56.117 3.92224 56.187 4.07624 56.227C4.07724 56.227 4.07724 56.228 4.07824 56.228L55.7172 69.833C55.7392 69.839 55.7622 69.839 55.7842 69.844C55.8622 69.861 55.9392 69.876 56.0182 69.881Z" fill="white"/>
</g>
<mask id="mask1" mask-type="alpha" maskUnits="userSpaceOnUse" x="78" y="6" width="65" height="59">
<path fill-rule="evenodd" clip-rule="evenodd" d="M78.953 6.76465H142.809V64.1162H78.953V6.76465Z" fill="white"/>
</mask>
<g mask="url(#mask1)">
<path fill-rule="evenodd" clip-rule="evenodd" d="M132.361 60.1412C128.43 60.1412 125.232 56.9432 125.232 53.0122C125.232 49.0802 128.43 45.8822 132.361 45.8822C136.292 45.8822 139.49 49.0802 139.49 53.0122C139.49 56.9432 136.292 60.1412 132.361 60.1412ZM119.664 40.1262L123.257 37.4912L123.317 37.5352L130.424 42.7472L130.206 42.7932C129.546 42.9332 128.897 43.1362 128.281 43.3982L128.244 43.4132L128.206 43.4002L119.664 40.1262ZM86.362 60.4372V60.4362C86.036 60.6792 85.649 60.7982 85.264 60.7982C84.783 60.7982 84.304 60.6132 83.947 60.2502L83.836 60.1392L83.919 60.0692L117.419 31.6072L128.24 27.4602L128.277 27.4762C128.899 27.7402 129.547 27.9442 130.202 28.0822L130.421 28.1282L130.241 28.2602L86.362 60.4372ZM83.841 10.7322L83.949 10.6212C84.601 9.96624 85.617 9.88824 86.364 10.4352L113.653 30.4482L110.344 33.2622L110.28 33.2062L83.841 10.7322ZM132.361 10.7342C136.292 10.7342 139.49 13.9332 139.49 17.8642C139.49 21.7952 136.292 24.9942 132.361 24.9942C128.43 24.9942 125.232 21.7952 125.232 17.8642C125.232 13.9332 128.43 10.7342 132.361 10.7342ZM139.599 45.5002C139.294 45.2072 138.963 44.9272 138.616 44.6672L138.59 44.6402L138.549 44.5912L126.06 35.4382L126.17 35.3572L138.547 26.2822L138.609 26.2162C140.844 24.5472 142.296 22.1072 142.696 19.3462C143.097 16.5852 142.398 13.8342 140.729 11.5992C139.06 9.36324 136.621 7.91124 133.86 7.51124C131.092 7.10824 128.346 7.80924 126.111 9.47724C123.876 11.1462 122.424 13.5862 122.024 16.3472C121.623 19.1082 122.322 21.8592 123.991 24.0952C124.247 24.4372 124.526 24.7672 124.82 25.0742L124.924 25.1832L116.483 28.4192L88.321 7.76724C86.277 6.25424 83.385 6.47524 81.597 8.28424L78.953 10.9312L107.785 35.4382L107.695 35.5142L78.953 59.9422L81.607 62.5982C83.395 64.4042 86.281 64.6262 88.322 63.1162L116.485 42.4632L116.537 42.4832L124.937 45.7012L124.833 45.8092C120.846 49.9652 120.984 56.5902 125.14 60.5772C129.298 64.5632 135.922 64.4232 139.908 60.2682C143.894 56.1122 143.756 49.4872 139.599 45.5002Z" fill="white"/>
</g>
</svg>
