<svg width="76" height="68" viewBox="0 0 76 68" fill="none" xmlns="http://www.w3.org/2000/svg">
<path fill-rule="evenodd" clip-rule="evenodd" d="M12.0178 56.1905H62.9811C62.2067 47.6343 59.2801 42.4229 53.6573 33.071L50.2311 27.372C47.5262 22.8746 46.0964 17.7186 46.0964 12.4615C46.0964 7.69088 42.2397 3.80952 37.4995 3.80952C32.7592 3.80952 28.9025 7.69088 28.9025 12.4615C28.9025 17.7186 27.4727 22.8746 24.7689 27.372L21.3416 33.071C15.7188 42.4218 12.7922 47.6343 12.0178 56.1905ZM67 60H8L8.09842 58.0005C8.65432 46.8125 12.4126 40.5616 18.1035 31.0988L21.5298 25.3997C23.8767 21.4977 25.1172 17.0242 25.1172 12.4615C25.1172 5.5902 30.6718 0 37.4995 0C44.3271 0 49.8817 5.5902 49.8817 12.4615C49.8817 17.0242 51.1222 21.4977 53.4691 25.3997L56.8954 31.0988C62.5852 40.5616 66.3446 46.8136 66.9005 58.0005L67 60Z" fill="white"/>
<mask id="mask0" mask-type="alpha" maskUnits="userSpaceOnUse" x="0" y="56" width="76" height="12">
<path fill-rule="evenodd" clip-rule="evenodd" d="M0.000549316 56.1357H75.1966V67.917H0.000549316V56.1357Z" fill="white"/>
</mask>
<g mask="url(#mask0)">
<path fill-rule="evenodd" clip-rule="evenodd" d="M5.90358 59.9274C4.74403 59.9274 3.80055 60.8688 3.80055 62.0258C3.80055 63.1839 4.74403 64.1253 5.90358 64.1253H69.293C70.4536 64.1253 71.3971 63.1839 71.3971 62.0258C71.3971 60.8688 70.4536 59.9274 69.293 59.9274H5.90358ZM69.293 67.917H5.90358C2.64861 67.917 0.000549316 65.2747 0.000549316 62.0258C0.000549316 58.778 2.64861 56.1357 5.90358 56.1357H69.293C72.548 56.1357 75.1971 58.778 75.1971 62.0258C75.1971 65.2747 72.548 67.917 69.293 67.917Z" fill="white"/>
</g>
<path fill-rule="evenodd" clip-rule="evenodd" d="M49.1213 38C48.4853 38 47.8643 37.6732 47.5109 37.0827L44.1074 31.3985C40.7662 25.8174 39 19.421 39 12.8998C39 11.8511 39.8412 11 40.8801 11C41.9179 11 42.7602 11.8511 42.7602 12.8998C42.7602 18.7284 44.3384 24.4441 47.324 29.4313L50.7285 35.1166C51.2657 36.0133 50.981 37.1825 50.0925 37.7253C49.7885 37.911 49.4533 38 49.1213 38Z" fill="white"/>
</svg>
