<svg width="1440" height="810" viewBox="0 0 1440 810" fill="none" xmlns="http://www.w3.org/2000/svg">
<rect width="1440" height="810" fill="#1CAA7C"/>
<mask id="mask0" mask-type="alpha" maskUnits="userSpaceOnUse" x="0" y="0" width="1440" height="810">
<rect width="1440" height="810" fill="white"/>
</mask>
<g mask="url(#mask0)">
<path fill-rule="evenodd" clip-rule="evenodd" d="M1840.29 27.2183C1983.26 -115.12 2095.79 -226.356 2234.1 -364.671C2434.2 -564.766 2419.17 -766.516 2309.02 -874.014C2201.52 -984.171 1999.77 -999.196 1799.67 -799.102C1661.36 -660.786 1550.12 -548.26 1407.78 -405.292C1246.68 -247.725 931.773 63.8854 868.947 169.041L868.04 169.945C866.93 172.013 865.847 174.079 864.78 176.143C834.174 229.292 818 280.02 818 332.532C818 376.475 827.005 417.834 843.411 454.63C856.798 485.403 875.714 512.839 898.993 536.005C922.162 559.285 949.598 578.202 980.369 591.588C1017.17 607.995 1058.52 617 1102.47 617C1154.98 617 1205.71 600.824 1258.86 570.218C1260.92 569.151 1262.99 568.069 1265.05 566.96L1265.96 566.052C1371.12 503.225 1682.73 188.32 1840.29 27.2183Z" fill="#1AA171"/>
<path fill-rule="evenodd" clip-rule="evenodd" d="M1005 3.80203C1051.76 25.0955 1107.31 37 1171.5 37C1289.85 37 1384.35 -5.06683 1441.62 -73.9004C1498.41 -142.735 1528 -233.079 1528 -336.809C1528 -395.867 1518.58 -450.359 1500.18 -499C1470.36 -468.951 1439.63 -437.99 1407.29 -405.453C1301.24 -301.56 1128.47 -130.741 1005 3.80203Z" fill="#1AA171"/>
<mask id="mask1" mask-type="alpha" maskUnits="userSpaceOnUse" x="-1671" y="-1349" width="5907" height="4597">
<path fill-rule="evenodd" clip-rule="evenodd" d="M-1671 3248H4236V-1349H-1671V3248Z" fill="white"/>
</mask>
<g mask="url(#mask1)">
<path fill-rule="evenodd" clip-rule="evenodd" d="M-1662 3244H4245V-1353H-1662V3244Z" fill="#BBBEB6"/>
<path fill-rule="evenodd" clip-rule="evenodd" d="M1568.08 -1074.32C1639.1 -1004.74 1730.37 -956.322 1792.2 -878.459C1922.14 -714.835 1874.12 -452.2 1714.97 -316.839C1617.48 -233.917 1485.32 -188.383 1414.66 -81.6466C1326.35 51.7671 1382.97 257.6 1527.08 327.01C1573.08 349.162 1624.88 358.699 1668.41 385.377C1740.73 429.697 1779.8 520.378 1767.46 604.319C1755.12 688.26 1694.45 762.096 1616.48 795.465C1560.32 819.497 1497.93 823.684 1438.87 839.226C1379.8 854.768 1319.19 886.604 1295.95 943.115C1256.85 1038.21 1340.63 1136.7 1358.54 1237.96C1383.62 1379.81 1257.36 1522.42 1113.78 1533.18C1081.4 1535.61 1056.6 1535.61 1024.22 1533.18C880.639 1522.42 754.376 1379.81 779.464 1237.96C797.374 1136.7 881.151 1038.21 842.047 943.115C818.81 886.604 758.202 854.768 699.135 839.226C640.066 823.684 577.676 819.497 521.52 795.465C443.55 762.096 382.882 688.26 370.539 604.319C358.196 520.378 397.276 429.697 469.588 385.377C513.117 358.699 564.924 349.162 610.917 327.01C755.026 257.6 811.65 51.7671 723.337 -81.6466C652.679 -188.383 520.519 -233.917 423.027 -316.839C263.884 -452.2 215.857 -714.835 345.798 -878.459C407.631 -956.322 498.902 -1004.74 569.916 -1074.32C640.93 -1143.9 691.194 -1255.01 642.697 -1341.81C612.5 -1395.86 552.908 -1424.88 503.517 -1462.2C431.074 -1516.93 375.043 -1599.79 372.207 -1690.57C369.371 -1781.35 430.787 -1875.73 520.042 -1892.3C597.589 -1906.71 682.232 -1864.45 754.162 -1896.82C805.799 -1920.06 834.221 -1974.66 871.661 -2017.15C912.927 -2063.98 970.388 -2098.66 1032.61 -2103.34C1062.13 -2105.55 1075.87 -2105.55 1105.39 -2103.34C1167.61 -2098.66 1225.07 -2063.98 1266.34 -2017.15C1303.78 -1974.66 1332.2 -1920.06 1383.84 -1896.82C1455.77 -1864.45 1540.41 -1906.71 1617.96 -1892.3C1707.21 -1875.73 1768.63 -1781.35 1765.79 -1690.57C1762.96 -1599.79 1706.93 -1516.93 1634.48 -1462.2C1585.09 -1424.88 1525.5 -1395.86 1495.3 -1341.81C1446.81 -1255.01 1497.07 -1143.9 1568.08 -1074.32Z" fill="#2E9962"/>
<path fill-rule="evenodd" clip-rule="evenodd" d="M809 927V926.999C809 625.267 1053.6 380.667 1355.33 380.667H1355.33C1657.07 380.667 1901.67 136.064 1901.67 -165.667V-165.668C1901.67 -467.399 2146.27 -712 2448 -712V927H809Z" fill="#026450"/>
<path fill-rule="evenodd" clip-rule="evenodd" d="M900.92 -600.633C957.753 -669.941 1052.79 -712 1171.24 -712C1289.68 -712 1384.24 -669.941 1441.56 -600.633C1498.39 -531.801 1528 -441.463 1528 -336.783C1528 -233.061 1498.39 -142.723 1441.56 -73.8914C1384.24 -5.06396 1289.68 37 1171.24 37C1025.57 37 924.32 -24.1824 869.399 -117.391C831.193 -180.484 814 -254.095 814 -336.783C814 -441.463 843.608 -531.801 900.92 -600.633Z" fill="#279A60"/>
<path fill-rule="evenodd" clip-rule="evenodd" d="M658 2023V2023C658 1754.77 440.71 1537.33 172.667 1537.33H172.666C-95.3755 1537.33 -312.667 1319.89 -312.667 1051.67V1051.67C-312.667 783.441 -529.957 566 -798 566L-798 2023L658 2023Z" fill="#8E6E6A"/>
<path fill-rule="evenodd" clip-rule="evenodd" d="M600.05 85.9995C447.646 85.9995 324.1 -37.5694 324.1 -190V-190.002C324.1 -342.198 200.929 -465.617 48.8506 -465.995V-466C48.7318 -466 48.6158 -465.998 48.5 -465.997C48.3826 -465.998 48.2667 -466 48.1509 -466V-465.995C-103.931 -465.617 -227.1 -342.198 -227.1 -190.002V-190C-227.1 -37.5694 -350.646 85.9995 -503.05 85.9995H-503.051C-655.453 85.9995 -779 209.568 -779 361.999V362.001C-779 514.43 -655.453 637.999 -503.051 637.999H-503.05C-350.646 637.999 -227.1 761.569 -227.1 913.999V914C-227.1 1066.2 -103.931 1189.62 48.1509 1190V1190C48.2667 1190 48.3826 1190 48.5 1190C48.6158 1190 48.7318 1190 48.8506 1190V1190C200.929 1189.62 324.1 1066.2 324.1 914V913.999C324.1 761.569 447.646 637.999 600.05 637.999C752.453 637.999 876 514.43 876 362.001V361.999C876 209.568 752.453 85.9995 600.05 85.9995Z" fill="#8D6E6B"/>
</g>
</g>
</svg>
