<svg width="1440" height="810" viewBox="0 0 1440 810" fill="none" xmlns="http://www.w3.org/2000/svg">
<rect width="1440" height="810" fill="#1CAA7C"/>
<mask id="mask0" mask-type="alpha" maskUnits="userSpaceOnUse" x="0" y="0" width="1440" height="810">
<rect width="1440" height="810" fill="white"/>
</mask>
<g mask="url(#mask0)">
<mask id="mask1" mask-type="alpha" maskUnits="userSpaceOnUse" x="-1274" y="-2399" width="5907" height="4597">
<path fill-rule="evenodd" clip-rule="evenodd" d="M-1274 2198H4633V-2399H-1274V2198Z" fill="white"/>
</mask>
<g mask="url(#mask1)">
<path fill-rule="evenodd" clip-rule="evenodd" d="M-1265 2194H4642V-2403H-1265V2194Z" fill="#BBBEB6"/>
<path fill-rule="evenodd" clip-rule="evenodd" d="M1834.08 -1636.32C1905.1 -1566.74 1996.37 -1518.32 2058.2 -1440.46C2188.14 -1276.83 2140.12 -1014.2 1980.97 -878.839C1883.48 -795.917 1751.32 -750.383 1680.66 -643.647C1592.35 -510.233 1648.97 -304.4 1793.08 -234.99C1839.08 -212.838 1890.88 -203.301 1934.41 -176.623C2006.73 -132.303 2045.8 -41.6218 2033.46 42.3193C2021.12 126.26 1960.45 200.096 1882.48 233.465C1826.32 257.497 1763.93 261.684 1704.87 277.226C1645.8 292.768 1585.19 324.604 1561.95 381.115C1522.85 476.215 1606.63 574.703 1624.54 675.962C1649.62 817.809 1523.36 960.421 1379.78 971.18C1347.4 973.607 1322.6 973.607 1290.22 971.18C1146.64 960.421 1020.38 817.809 1045.46 675.962C1063.37 574.703 1147.15 476.215 1108.05 381.115C1084.81 324.604 1024.2 292.768 965.135 277.226C906.066 261.684 843.676 257.497 787.52 233.465C709.55 200.096 648.882 126.26 636.539 42.3193C624.196 -41.6218 663.276 -132.303 735.588 -176.623C779.117 -203.301 830.924 -212.838 876.917 -234.99C1021.03 -304.4 1077.65 -510.233 989.337 -643.647C918.679 -750.383 786.519 -795.917 689.027 -878.839C529.884 -1014.2 481.857 -1276.83 611.798 -1440.46C673.631 -1518.32 764.902 -1566.74 835.916 -1636.32C906.93 -1705.9 957.194 -1817.01 908.697 -1903.81C878.5 -1957.86 818.908 -1986.88 769.517 -2024.2C697.074 -2078.93 641.043 -2161.79 638.207 -2252.57C635.371 -2343.35 696.787 -2437.73 786.042 -2454.3C863.589 -2468.71 948.232 -2426.45 1020.16 -2458.82C1071.8 -2482.06 1100.22 -2536.66 1137.66 -2579.15C1178.93 -2625.98 1236.39 -2660.66 1298.61 -2665.34C1328.13 -2667.55 1341.87 -2667.55 1371.39 -2665.34C1433.61 -2660.66 1491.07 -2625.98 1532.34 -2579.15C1569.78 -2536.66 1598.2 -2482.06 1649.84 -2458.82C1721.77 -2426.45 1806.41 -2468.71 1883.96 -2454.3C1973.21 -2437.73 2034.63 -2343.35 2031.79 -2252.57C2028.96 -2161.79 1972.93 -2078.93 1900.48 -2024.2C1851.09 -1986.88 1791.5 -1957.86 1761.3 -1903.81C1712.81 -1817.01 1763.07 -1705.9 1834.08 -1636.32Z" fill="#2E9962"/>
<path fill-rule="evenodd" clip-rule="evenodd" d="M1055 973V972.998C1055 704.772 837.71 487.332 569.667 487.332H569.666C301.625 487.332 84.3328 269.893 84.3328 1.66669V1.66516C84.3328 -266.559 -132.957 -484 -401 -484L-401 973L1055 973Z" fill="#8E6E6A"/>
<path fill-rule="evenodd" clip-rule="evenodd" d="M1835 733H1835C1566.96 733 1349.67 950.439 1349.67 1218.67V1218.67C1349.67 1486.89 1132.38 1704.33 864.335 1704.33H864.332C596.291 1704.33 379 1921.77 379 2190H1835V733Z" fill="#1AA171"/>
<path fill-rule="evenodd" clip-rule="evenodd" d="M997.05 -964C844.646 -964 721.1 -1087.57 721.1 -1240V-1240C721.1 -1392.2 597.929 -1515.62 445.851 -1516V-1516C445.732 -1516 445.616 -1516 445.5 -1516C445.383 -1516 445.267 -1516 445.151 -1516V-1516C293.069 -1515.62 169.9 -1392.2 169.9 -1240V-1240C169.9 -1087.57 46.3537 -964 -106.05 -964H-106.051C-258.453 -964 -382 -840.432 -382 -688.001V-687.999C-382 -535.57 -258.453 -412.001 -106.051 -412.001H-106.05C46.3537 -412.001 169.9 -288.431 169.9 -136.001V-136C169.9 16.1963 293.069 139.617 445.151 139.995V140C445.267 140 445.383 139.999 445.5 139.999C445.616 139.999 445.732 140 445.851 140V139.995C597.929 139.617 721.1 16.1963 721.1 -136V-136.001C721.1 -288.431 844.646 -412.001 997.05 -412.001C1149.45 -412.001 1273 -535.57 1273 -687.999V-688.001C1273 -840.432 1149.45 -964 997.05 -964Z" fill="#8D6E6B"/>
<path fill-rule="evenodd" clip-rule="evenodd" d="M-440 -740.208V-740.207C-440 -587.879 -316.51 -464.395 -164.179 -464.395H-164.177C-11.8466 -464.395 111.642 -340.908 111.642 -188.584V-188.582C111.642 -113.149 141.929 -44.7935 191 5V-760H-439.294C-439.759 -753.463 -440 -746.864 -440 -740.208Z" fill="#2E9962"/>
<path fill-rule="evenodd" clip-rule="evenodd" d="M-16.0803 285.369C40.7525 216.061 135.794 174 254.238 174C372.681 174 467.244 216.061 524.556 285.369C581.39 354.2 611 444.538 611 549.218C611 652.94 581.39 743.277 524.556 812.109C467.244 880.936 372.681 923 254.238 923C108.572 923 7.32037 861.818 -47.6028 768.61C-85.8069 705.516 -103 631.906 -103 549.218C-103 444.538 -73.3917 354.2 -16.0803 285.369Z" fill="#2E9962"/>
<path fill-rule="evenodd" clip-rule="evenodd" d="M-525.082 285.369C-468.249 216.061 -373.207 174 -254.762 174C-136.319 174 -41.7556 216.061 15.5558 285.369C72.3887 354.2 102 444.538 102 549.218C102 652.94 72.3887 743.277 15.5558 812.109C-41.7556 880.936 -136.319 923 -254.762 923C-400.429 923 -501.68 861.818 -556.603 768.61C-594.808 705.516 -612 631.906 -612 549.218C-612 444.538 -582.393 354.2 -525.082 285.369Z" fill="#0C6350"/>
<path fill-rule="evenodd" clip-rule="evenodd" d="M-0.314049 268C-5.85133 273.619 -11.1127 279.454 -16.0754 285.497C-73.3901 354.247 -103 444.477 -103 549.033C-103 631.622 -85.8059 705.145 -47.5982 768.162C-34.4767 790.402 -18.7046 810.809 -0.323196 829C5.24458 823.412 10.5426 817.616 15.551 811.608C72.387 742.86 102 652.63 102 549.033C102 444.477 72.387 354.247 15.551 285.497C10.5456 279.454 5.24915 273.619 -0.314049 268Z" fill="#BBBEB6"/>
</g>
</g>
</svg>
