<svg width="1440" height="810" viewBox="0 0 1440 810" fill="none" xmlns="http://www.w3.org/2000/svg">
<rect width="1440" height="810" fill="#1CAA7C"/>
<mask id="mask0" mask-type="alpha" maskUnits="userSpaceOnUse" x="0" y="0" width="1440" height="810">
<rect width="1440" height="810" fill="white"/>
</mask>
<g mask="url(#mask0)">
<path fill-rule="evenodd" clip-rule="evenodd" d="M1370.29 1376.22C1513.26 1233.88 1625.79 1122.64 1764.1 984.329C1964.2 784.234 1949.17 582.484 1839.02 474.986C1731.52 364.829 1529.77 349.804 1329.67 549.898C1191.36 688.214 1080.12 800.74 937.781 943.708C776.68 1101.27 461.773 1412.89 398.947 1518.04L398.04 1518.94C396.93 1521.01 395.847 1523.08 394.78 1525.14C364.174 1578.29 348 1629.02 348 1681.53C348 1725.47 357.005 1766.83 373.411 1803.63C386.798 1834.4 405.714 1861.84 428.993 1885.01C452.162 1908.29 479.598 1927.2 510.369 1940.59C547.166 1957 588.524 1966 632.467 1966C684.979 1966 735.708 1949.82 788.856 1919.22C790.92 1918.15 792.985 1917.07 795.054 1915.96L795.958 1915.05C901.115 1852.23 1212.73 1537.32 1370.29 1376.22Z" fill="#1AA171"/>
<path fill-rule="evenodd" clip-rule="evenodd" d="M1839.07 474.997C1775.18 409.481 1677.99 377.615 1567.66 404.62C1566.93 404.835 1566.2 405.042 1565.45 405.233C1556.9 407.436 1548.6 409.819 1540.53 412.378C1518.41 419.609 1495.85 429.203 1472.99 441.352C1452.02 453.302 1433.26 467.444 1416.56 484.156C1238.43 662.426 1329.53 990 1742.9 990C1748.18 990 1753.41 989.998 1758.64 989.997C1760.49 988.146 1762.34 986.29 1764.2 984.429C1964.17 784.3 1949.15 582.515 1839.07 474.997Z" fill="#1AA171"/>
<mask id="mask1" mask-type="alpha" maskUnits="userSpaceOnUse" x="-2141" y="0" width="5907" height="4597">
<path fill-rule="evenodd" clip-rule="evenodd" d="M-2141 4597H3766V0H-2141V4597Z" fill="white"/>
</mask>
<g mask="url(#mask1)">
<path fill-rule="evenodd" clip-rule="evenodd" d="M-2132 4593H3775V-4H-2132V4593Z" fill="#BBBEB6"/>
<path fill-rule="evenodd" clip-rule="evenodd" d="M967.085 762.678C1038.1 832.262 1129.37 880.678 1191.2 958.541C1321.14 1122.17 1273.12 1384.8 1113.97 1520.16C1016.48 1603.08 884.32 1648.62 813.662 1755.35C725.349 1888.77 781.975 2094.6 926.084 2164.01C972.077 2186.16 1023.88 2195.7 1067.41 2222.38C1139.73 2266.7 1178.8 2357.38 1166.46 2441.32C1154.12 2525.26 1093.45 2599.1 1015.48 2632.47C959.325 2656.5 896.935 2660.68 837.865 2676.23C778.799 2691.77 718.191 2723.6 694.954 2780.11C655.85 2875.21 739.627 2973.7 757.537 3074.96C782.624 3216.81 656.362 3359.42 512.784 3370.18C480.397 3372.61 455.602 3372.61 423.217 3370.18C279.639 3359.42 153.376 3216.81 178.464 3074.96C196.374 2973.7 280.151 2875.21 241.047 2780.11C217.81 2723.6 157.202 2691.77 98.1353 2676.23C39.0659 2660.68 -23.3238 2656.5 -79.4798 2632.47C-157.45 2599.1 -218.118 2525.26 -230.461 2441.32C-242.804 2357.38 -203.724 2266.7 -131.412 2222.38C-87.8833 2195.7 -36.076 2186.16 9.91666 2164.01C154.026 2094.6 210.65 1888.77 122.337 1755.35C51.6794 1648.62 -80.4809 1603.08 -177.973 1520.16C-337.116 1384.8 -385.143 1122.17 -255.202 958.541C-193.369 880.678 -102.098 832.262 -31.0842 762.678C39.9298 693.096 90.1936 581.995 41.6974 495.189C11.4998 441.138 -48.0922 412.115 -97.4828 374.799C-169.926 320.068 -225.957 237.21 -228.793 146.431C-231.629 55.6529 -170.213 -38.7279 -80.9579 -55.3036C-3.4115 -69.7054 81.2324 -27.4528 153.162 -59.8207C204.799 -83.0553 233.221 -137.656 270.661 -180.147C311.927 -226.979 369.388 -261.664 431.614 -266.336C461.134 -268.555 474.867 -268.555 504.387 -266.336C566.612 -261.664 624.074 -226.979 665.338 -180.147C702.78 -137.656 731.202 -83.0553 782.837 -59.8207C854.768 -27.4528 939.412 -69.7054 1016.96 -55.3036C1106.21 -38.7279 1167.63 55.6529 1164.79 146.431C1161.96 237.21 1105.93 320.068 1033.48 374.799C984.093 412.115 924.501 441.138 894.303 495.189C845.806 581.995 896.071 693.096 967.085 762.678Z" fill="#2E9962"/>
<path fill-rule="evenodd" clip-rule="evenodd" d="M1588.89 -0.962688C1498.28 85.4299 1501.95 219.422 1589.44 306.954C1589.86 307.375 1590.29 307.793 1590.71 308.21C1622.76 339.707 1608.05 394.004 1564.54 405.214C1502.83 421.111 1453.82 445.891 1415.59 484.138C1237.4 662.415 1328.53 990 1742.05 990C1937.61 990 2095.79 989.09 2297.48 988.643C2642.17 992.469 2846.5 995.902 2958.41 883.94C3107.67 734.608 3067.96 480.529 2808.1 401.955C2765.95 389.21 2753.24 335.568 2785.12 305.173C2875.72 218.78 2872.05 84.7865 2784.56 -2.7436C2784.14 -3.16291 2783.72 -3.58374 2783.29 -4" fill="#0C6350"/>
<path fill-rule="evenodd" clip-rule="evenodd" d="M339 2276V2276C339 1974.27 583.602 1729.67 885.332 1729.67H885.334C1187.07 1729.67 1431.67 1485.06 1431.67 1183.33V1183.33C1431.67 881.601 1676.27 637 1978 637V2276H339Z" fill="#1AA171"/>
<path fill-rule="evenodd" clip-rule="evenodd" d="M430.92 149.367C487.753 80.0593 582.794 38 701.238 38C819.681 38 914.244 80.0593 971.556 149.367C1028.39 218.199 1058 308.538 1058 413.216C1058 516.94 1028.39 607.276 971.556 676.107C914.244 744.935 819.681 787 701.238 787C555.572 787 454.32 725.818 399.399 632.61C361.193 569.515 344 495.906 344 413.216C344 308.538 373.608 218.199 430.92 149.367Z" fill="#8F6E69"/>
<path fill-rule="evenodd" clip-rule="evenodd" d="M430.92 748.367C487.753 679.059 582.794 637 701.238 637C819.681 637 914.244 679.059 971.556 748.367C1028.39 817.199 1058 907.537 1058 1012.22C1058 1115.94 1028.39 1206.28 971.556 1275.11C914.244 1343.94 819.681 1386 701.238 1386C555.572 1386 454.32 1324.82 399.399 1231.61C361.193 1168.52 344 1094.9 344 1012.22C344 907.537 373.608 817.199 430.92 748.367Z" fill="#0C6350"/>
<path fill-rule="evenodd" clip-rule="evenodd" d="M701.536 637C605.757 637 525.299 664.455 468 711.537C525.215 758.192 603.253 786 701.536 786C797.374 786 877.559 758.507 935 711.624C877.559 664.49 797.374 637 701.536 637Z" fill="#279A60"/>
<path fill-rule="evenodd" clip-rule="evenodd" d="M342.095 -4C339.243 87.1223 400.979 181.86 490.695 198.498C568.644 212.954 653.728 170.543 726.031 203.032C777.933 226.355 806.504 281.164 844.139 323.814C885.62 370.822 943.377 405.642 1005.92 410.331C1035.6 412.556 1049.4 412.556 1079.08 410.331C1141.62 405.642 1199.38 370.822 1240.86 323.814C1278.5 281.164 1307.07 226.355 1358.97 203.032C1431.27 170.543 1516.36 212.954 1594.31 198.498C1684.02 181.86 1745.76 87.1223 1742.91 -4" fill="#026450"/>
<path fill-rule="evenodd" clip-rule="evenodd" d="M971.594 149.219C914.304 80.0034 819.778 38 701.379 38C582.981 38 487.976 80.0034 431.165 149.219C426.959 154.266 422.906 159.431 419 164.706C439.846 181.49 464.173 193.474 491.009 198.454C568.915 212.913 653.948 170.493 726.212 202.99C778.084 226.316 806.641 281.138 844.252 323.797C885.71 370.816 943.436 405.642 1005.95 410.332C1027.65 411.961 1040.86 412.396 1058 411.641C1057.8 307.558 1028.21 217.723 971.594 149.219Z" fill="#BBBEB6"/>
<path fill-rule="evenodd" clip-rule="evenodd" d="M84.3645 -213.925L-9.84381 -308.254C-125.358 -423.915 -312.643 -423.915 -428.158 -308.254L-522.363 -213.925C-637.879 -98.263 -637.879 89.263 -522.363 204.925L-428.158 299.254C-312.643 414.915 -125.358 414.915 -9.84381 299.254L84.3645 204.925C199.878 89.263 199.878 -98.263 84.3645 -213.925Z" fill="#0C6350"/>
</g>
</g>
</svg>
