<svg width="1440" height="810" viewBox="0 0 1440 810" fill="none" xmlns="http://www.w3.org/2000/svg">
<rect width="1440" height="810" fill="#1CAA7C"/>
<mask id="mask0" mask-type="alpha" maskUnits="userSpaceOnUse" x="0" y="0" width="1440" height="810">
<rect width="1440" height="810" fill="white"/>
</mask>
<g mask="url(#mask0)">
<mask id="mask1" mask-type="alpha" maskUnits="userSpaceOnUse" x="-3958" y="-2802" width="5907" height="4597">
<path fill-rule="evenodd" clip-rule="evenodd" d="M-3958 1795H1949V-2802H-3958V1795Z" fill="white"/>
</mask>
<g mask="url(#mask1)">
<path fill-rule="evenodd" clip-rule="evenodd" d="M-3949 1791H1958V-2806H-3949V1791Z" fill="#BBBEB6"/>
<path fill-rule="evenodd" clip-rule="evenodd" d="M1095 -526H-654.579C-785.704 -526 -892 -419.704 -892 -288.58V-200.945C-892 -69.8211 -785.704 36.4763 -654.579 36.4763C-523.456 36.4763 -417.159 142.772 -417.159 273.896V273.898C-417.159 405.02 -310.861 511.318 -179.739 511.318C-48.6133 511.318 57.6825 617.613 57.6825 748.737V748.739C57.6825 879.861 163.98 986.157 295.102 986.157H295.104C426.228 986.157 532.524 1092.46 532.524 1223.58C532.524 1354.7 638.819 1461 769.945 1461H857.58C988.704 1461 1095 1354.7 1095 1223.58V-526Z" fill="#2E9962"/>
<path fill-rule="evenodd" clip-rule="evenodd" d="M871.365 -269.925L777.156 -364.254C661.642 -479.915 474.356 -479.915 358.842 -364.254L264.635 -269.925C149.122 -154.263 149.122 33.2633 264.635 148.925L358.842 243.253C474.356 358.916 661.642 358.916 777.156 243.253L871.365 148.925C986.878 33.2633 986.878 -154.263 871.365 -269.925Z" fill="#BBBEB6"/>
<path fill-rule="evenodd" clip-rule="evenodd" d="M1643.78 35.2909C1786.12 178.26 1897.36 290.786 2035.67 429.101C2235.77 629.196 2437.51 614.172 2545.01 504.014C2655.17 396.514 2670.2 194.765 2470.1 -5.32916C2331.78 -143.644 2219.26 -254.882 2076.29 -397.22C1918.72 -558.32 1607.11 -873.227 1501.96 -936.053L1501.05 -936.96C1498.99 -938.069 1496.92 -939.153 1494.86 -940.218C1441.71 -970.826 1390.98 -987 1338.47 -987C1294.52 -987 1253.16 -977.995 1216.37 -961.588C1185.6 -948.2 1158.16 -929.286 1134.99 -906.005C1111.71 -882.837 1092.8 -855.402 1079.41 -824.631C1063 -787.834 1054 -746.476 1054 -702.532C1054 -650.021 1070.17 -599.291 1100.78 -546.145C1101.85 -544.081 1102.93 -542.013 1104.04 -539.946L1104.95 -539.042C1167.77 -433.885 1482.68 -122.275 1643.78 35.2909Z" fill="#2E9962"/>
<path fill-rule="evenodd" clip-rule="evenodd" d="M1892.2 1519.54C2022.14 1683.16 1974.12 1945.8 1814.97 2081.16C1717.48 2164.08 1585.32 2209.62 1514.66 2316.35C1426.35 2449.77 1482.97 2655.6 1627.08 2725.01C1673.08 2747.16 1724.88 2756.7 1768.41 2783.38C1840.72 2827.7 1879.8 2918.38 1867.46 3002.32C1855.12 3086.26 1794.45 3160.1 1716.48 3193.47C1660.32 3217.5 1597.93 3221.68 1538.86 3237.23C1479.8 3252.77 1419.19 3284.6 1395.95 3341.11C1356.85 3436.21 1440.62 3534.7 1458.53 3635.96C1483.62 3777.81 1357.36 3920.42 1213.78 3931.18C1181.4 3933.61 1156.6 3933.61 1124.22 3931.18C980.639 3920.42 854.375 3777.81 879.464 3635.96C897.374 3534.7 981.149 3436.21 942.045 3341.11C918.808 3284.6 858.201 3252.77 799.134 3237.23C740.066 3221.68 677.675 3217.5 621.52 3193.47C543.55 3160.1 482.882 3086.26 470.538 3002.32C458.195 2918.38 497.276 2827.7 569.589 2783.38C613.117 2756.7 664.922 2747.16 710.917 2725.01C855.026 2655.6 911.65 2449.77 823.337 2316.35C752.681 2209.62 620.52 2164.08 523.027 2081.16C363.884 1945.8 315.857 1683.16 445.797 1519.54C507.631 1441.68 598.902 1393.26 669.917 1323.68C740.93 1254.1 791.193 1143 742.696 1056.19C712.5 1002.14 652.906 973.114 603.516 935.798C531.072 881.068 475.043 798.21 472.207 707.432C469.37 616.653 530.787 522.274 620.04 505.697C697.588 491.293 782.232 533.546 854.164 501.18C905.797 477.945 934.221 423.343 971.662 380.852C1012.93 334.02 1070.39 299.335 1132.61 294.662C1162.13 292.446 1175.87 292.446 1205.39 294.662C1267.61 299.335 1325.07 334.02 1366.34 380.852C1403.78 423.343 1432.2 477.945 1483.84 501.18C1555.77 533.546 1640.41 491.293 1717.96 505.697C1807.21 522.274 1868.63 616.653 1865.79 707.432C1862.96 798.21 1806.93 881.068 1734.48 935.798C1685.09 973.114 1625.5 1002.14 1595.3 1056.19C1546.81 1143 1597.07 1254.1 1668.08 1323.68C1739.1 1393.26 1830.37 1441.68 1892.2 1519.54Z" fill="#8F6E69"/>
<path fill-rule="evenodd" clip-rule="evenodd" d="M971.328 380.804C933.904 423.307 905.492 477.925 853.882 501.168C781.982 533.545 697.376 491.279 619.862 505.687C530.649 522.268 469.258 616.678 472.094 707.484C474.929 798.29 530.935 881.173 603.346 935.92C652.715 973.248 712.281 1002.28 742.463 1056.35C790.939 1143.18 740.698 1254.32 669.717 1323.92C647.025 1346.17 622.264 1366.25 597.06 1385.83C640.346 1432.09 701.905 1461 770.213 1461H857.776C988.792 1461 1095 1354.66 1095 1223.48V301C1047.35 313.855 1004.2 343.473 971.328 380.804Z" fill="#0C6350"/>
<path fill-rule="evenodd" clip-rule="evenodd" d="M68.9668 526.467C-162.988 758.445 -162.988 1134.55 68.9653 1366.53C117.586 1415.16 196.414 1415.16 245.034 1366.53C476.989 1134.55 476.989 758.445 245.034 526.467C196.414 477.844 117.586 477.844 68.9668 526.467Z" fill="#006550"/>
<path fill-rule="evenodd" clip-rule="evenodd" d="M245.137 525.482C196.544 476.84 117.76 476.839 69.168 525.482H69.1665C45.7441 548.931 24.6907 573.852 6 599.947C38.4836 640.587 57.9116 692.137 57.9116 748.231V748.233C57.9116 879.416 164.143 985.76 295.186 985.76H295.188C338.733 985.76 379.536 997.505 414.614 1018C435.948 842.817 379.458 659.947 245.137 525.482Z" fill="#8E6E6A"/>
<path fill-rule="evenodd" clip-rule="evenodd" d="M2695 353H2695C2426.96 353 2209.67 570.439 2209.67 838.666C2209.67 1106.89 1992.38 1324.33 1724.33 1324.33H1724.33C1456.29 1324.33 1239 1541.77 1239 1810H2695V353Z" fill="#2E9962"/>
</g>
</g>
</svg>
