<svg width="1440" height="810" viewBox="0 0 1440 810" fill="none" xmlns="http://www.w3.org/2000/svg">
<rect width="1440" height="810" fill="#1CAA7C"/>
<mask id="mask0" mask-type="alpha" maskUnits="userSpaceOnUse" x="0" y="0" width="1440" height="810">
<rect width="1440" height="810" fill="white"/>
</mask>
<g mask="url(#mask0)">
<mask id="mask1" mask-type="alpha" maskUnits="userSpaceOnUse" x="-2985" y="-2802" width="5907" height="4597">
<path fill-rule="evenodd" clip-rule="evenodd" d="M-2985 1795H2922V-2802H-2985V1795Z" fill="white"/>
</mask>
<g mask="url(#mask1)">
<path fill-rule="evenodd" clip-rule="evenodd" d="M-2976 1791H2931V-2806H-2976V1791Z" fill="#BBBEB6"/>
<path fill-rule="evenodd" clip-rule="evenodd" d="M2068 -526H318.421C187.296 -526 81 -419.704 81 -288.58V-200.945C81 -69.8211 187.296 36.4763 318.421 36.4763C449.544 36.4763 555.841 142.772 555.841 273.896V273.898C555.841 405.02 662.139 511.318 793.261 511.318C924.387 511.318 1030.68 617.613 1030.68 748.737V748.739C1030.68 879.861 1136.98 986.157 1268.1 986.157H1268.1C1399.23 986.157 1505.52 1092.46 1505.52 1223.58C1505.52 1354.7 1611.82 1461 1742.95 1461H1830.58C1961.7 1461 2068 1354.7 2068 1223.58V-526Z" fill="#2E9962"/>
<path fill-rule="evenodd" clip-rule="evenodd" d="M123.085 -2039.32C194.098 -1969.74 285.37 -1921.32 347.203 -1843.46C477.142 -1679.83 429.117 -1417.2 269.972 -1281.84C172.48 -1198.92 40.3198 -1153.38 -30.3376 -1046.65C-118.651 -913.233 -62.0254 -707.4 82.0841 -637.99C128.077 -615.838 179.882 -606.301 223.411 -579.623C295.725 -535.303 334.804 -444.622 322.462 -360.681C310.118 -276.74 249.451 -202.904 171.481 -169.535C115.325 -145.503 52.9349 -141.316 -6.13452 -125.774C-65.2009 -110.232 -125.809 -78.3965 -149.046 -21.8855C-188.15 73.2148 -104.373 171.703 -86.4633 272.962C-61.3763 414.809 -187.638 557.421 -331.216 568.18C-363.603 570.607 -388.398 570.607 -420.783 568.18C-564.361 557.421 -690.624 414.809 -665.536 272.962C-647.626 171.703 -563.849 73.2148 -602.953 -21.8855C-626.19 -78.3965 -686.798 -110.232 -745.865 -125.774C-804.934 -141.316 -867.324 -145.503 -923.48 -169.535C-1001.45 -202.904 -1062.12 -276.74 -1074.46 -360.681C-1086.8 -444.622 -1047.72 -535.303 -975.412 -579.623C-931.883 -606.301 -880.076 -615.838 -834.083 -637.99C-689.974 -707.4 -633.35 -913.233 -721.663 -1046.65C-792.321 -1153.38 -924.481 -1198.92 -1021.97 -1281.84C-1181.12 -1417.2 -1229.14 -1679.83 -1099.2 -1843.46C-1037.37 -1921.32 -946.098 -1969.74 -875.084 -2039.32C-804.07 -2108.9 -753.806 -2220.01 -802.303 -2306.81C-832.5 -2360.86 -892.092 -2389.88 -941.483 -2427.2C-1013.93 -2481.93 -1069.96 -2564.79 -1072.79 -2655.57C-1075.63 -2746.35 -1014.21 -2840.73 -924.958 -2857.3C-847.411 -2871.71 -762.768 -2829.45 -690.838 -2861.82C-639.201 -2885.06 -610.779 -2939.66 -573.339 -2982.15C-532.073 -3028.98 -474.612 -3063.66 -412.386 -3068.34C-382.866 -3070.55 -369.133 -3070.55 -339.613 -3068.34C-277.388 -3063.66 -219.926 -3028.98 -178.662 -2982.15C-141.22 -2939.66 -112.798 -2885.06 -61.163 -2861.82C10.7684 -2829.45 95.4122 -2871.71 172.959 -2857.3C262.213 -2840.73 323.629 -2746.35 320.794 -2655.57C317.958 -2564.79 261.927 -2481.93 189.484 -2427.2C140.093 -2389.88 80.5009 -2360.86 50.3033 -2306.81C1.80566 -2220.01 52.0709 -2108.9 123.085 -2039.32Z" fill="#2E9962"/>
<path fill-rule="evenodd" clip-rule="evenodd" d="M1844.36 -269.925L1750.16 -364.254C1634.64 -479.915 1447.36 -479.915 1331.84 -364.254L1237.64 -269.925C1122.12 -154.263 1122.12 33.2633 1237.64 148.925L1331.84 243.253C1447.36 358.916 1634.64 358.916 1750.16 243.253L1844.36 148.925C1959.88 33.2633 1959.88 -154.263 1844.36 -269.925Z" fill="#BBBEB6"/>
<path fill-rule="evenodd" clip-rule="evenodd" d="M124 330H123.999C-144.044 330 -361.335 547.439 -361.335 815.666V815.667C-361.335 1083.89 -578.625 1301.33 -846.665 1301.33H-846.668C-1114.71 1301.33 -1332 1518.77 -1332 1787H124V330Z" fill="#279A60"/>
<path fill-rule="evenodd" clip-rule="evenodd" d="M2641.08 1323.68C2712.1 1393.26 2803.37 1441.68 2865.2 1519.54C2995.14 1683.16 2947.12 1945.8 2787.97 2081.16C2690.48 2164.08 2558.32 2209.62 2487.66 2316.35C2399.35 2449.77 2455.97 2655.6 2600.08 2725.01C2646.08 2747.16 2697.88 2756.7 2741.41 2783.38C2813.72 2827.7 2852.8 2918.38 2840.46 3002.32C2828.12 3086.26 2767.45 3160.1 2689.48 3193.47C2633.32 3217.5 2570.93 3221.68 2511.86 3237.23C2452.8 3252.77 2392.19 3284.6 2368.95 3341.11C2329.85 3436.21 2413.62 3534.7 2431.53 3635.96C2456.62 3777.81 2330.36 3920.42 2186.78 3931.18C2154.4 3933.61 2129.6 3933.61 2097.22 3931.18C1953.64 3920.42 1827.38 3777.81 1852.46 3635.96C1870.37 3534.7 1954.15 3436.21 1915.05 3341.11C1891.81 3284.6 1831.2 3252.77 1772.13 3237.23C1713.07 3221.68 1650.67 3217.5 1594.52 3193.47C1516.55 3160.1 1455.88 3086.26 1443.54 3002.32C1431.19 2918.38 1470.28 2827.7 1542.59 2783.38C1586.12 2756.7 1637.92 2747.16 1683.92 2725.01C1828.03 2655.6 1884.65 2449.77 1796.34 2316.35C1725.68 2209.62 1593.52 2164.08 1496.03 2081.16C1336.88 1945.8 1288.86 1683.16 1418.8 1519.54C1480.63 1441.68 1571.9 1393.26 1642.92 1323.68C1713.93 1254.1 1764.19 1143 1715.7 1056.19C1685.5 1002.14 1625.91 973.114 1576.52 935.798C1504.07 881.068 1448.04 798.21 1445.21 707.432C1442.37 616.653 1503.79 522.274 1593.04 505.697C1670.59 491.293 1755.23 533.546 1827.16 501.18C1878.8 477.945 1907.22 423.343 1944.66 380.852C1985.93 334.02 2043.39 299.335 2105.61 294.662C2135.13 292.446 2148.87 292.446 2178.39 294.662C2240.61 299.335 2298.07 334.02 2339.34 380.852C2376.78 423.343 2405.2 477.945 2456.84 501.18C2528.77 533.546 2613.41 491.293 2690.96 505.697C2780.21 522.274 2841.63 616.653 2838.79 707.432C2835.96 798.21 2779.93 881.068 2707.48 935.798C2658.09 973.114 2598.5 1002.14 2568.3 1056.19C2519.81 1143 2570.07 1254.1 2641.08 1323.68Z" fill="#1AA171"/>
<path fill-rule="evenodd" clip-rule="evenodd" d="M1041.97 526.467C810.012 758.445 810.012 1134.55 1041.97 1366.53C1090.59 1415.16 1169.41 1415.16 1218.03 1366.53C1449.99 1134.55 1449.99 758.445 1218.03 526.467C1169.41 477.844 1090.59 477.844 1041.97 526.467Z" fill="#006550"/>
<path fill-rule="evenodd" clip-rule="evenodd" d="M1218.14 525.482C1169.54 476.84 1090.76 476.839 1042.17 525.482H1042.17C1018.74 548.931 997.691 573.852 979 599.947C1011.48 640.587 1030.91 692.137 1030.91 748.231V748.233C1030.91 879.416 1137.14 985.76 1268.19 985.76H1268.19C1311.73 985.76 1352.54 997.505 1387.61 1018C1408.95 842.817 1352.46 659.947 1218.14 525.482Z" fill="#8E6E6A"/>
<path fill-rule="evenodd" clip-rule="evenodd" d="M124.002 330.327C476.283 319.037 768 601.443 768 953.774V1281.64C768 1390.04 703.928 1325.96 604.676 1369.61C482.735 1423.25 417.205 1556.92 449.517 1686.11L680.289 2620.29C724.841 2798.43 590.056 2971 406.36 2971H236.48C174.359 2971 124 2920.66 124 2858.56V330.327H124.002Z" fill="#2E9962"/>
<path fill-rule="evenodd" clip-rule="evenodd" d="M-146.08 552.369C-89.2475 483.061 5.79405 441 124.238 441C242.681 441 337.244 483.061 394.556 552.369C451.39 621.201 481 711.538 481 816.218C481 919.939 451.39 1010.28 394.556 1079.11C337.244 1147.94 242.681 1190 124.238 1190C-21.4275 1190 -122.68 1128.82 -177.603 1035.61C-215.807 972.517 -233 898.906 -233 816.218C-233 711.538 -203.392 621.201 -146.08 552.369Z" fill="#006550"/>
</g>
</g>
</svg>
