<svg width="302" height="313" viewBox="0 0 302 313" fill="none" xmlns="http://www.w3.org/2000/svg">
<g opacity="0.350516">
<mask id="mask0" mask-type="alpha" maskUnits="userSpaceOnUse" x="0" y="1" width="302" height="312">
<path fill-rule="evenodd" clip-rule="evenodd" d="M0 1.00079H301.02V312.463H0V1.00079Z" fill="white"/>
</mask>
<g mask="url(#mask0)">
<path fill-rule="evenodd" clip-rule="evenodd" d="M0.002 174.649C0.003 173.729 0.024 172.822 0.064 171.924C0.079 171.611 0.106 171.304 0.124 170.993C0.16 170.394 0.196 169.796 0.249 169.209C0.281 168.851 0.324 168.501 0.363 168.147C0.42 167.617 0.479 167.087 0.55 166.565C0.6 166.198 0.658 165.836 0.715 165.474C0.792 164.978 0.872 164.484 0.961 163.996C1.028 163.631 1.101 163.271 1.174 162.912C1.271 162.438 1.372 161.967 1.48 161.503C1.563 161.147 1.648 160.794 1.736 160.443C1.854 159.984 1.976 159.531 2.103 159.082C2.199 158.74 2.296 158.399 2.398 158.063C2.535 157.615 2.68 157.174 2.826 156.736C2.935 156.413 3.041 156.087 3.154 155.77C3.314 155.324 3.483 154.887 3.653 154.451C3.769 154.155 3.88 153.855 4 153.564C4.191 153.098 4.396 152.645 4.599 152.192C4.71 151.944 4.815 151.69 4.931 151.447C5.241 150.784 5.564 150.135 5.9 149.501C5.968 149.372 6.04 149.248 6.109 149.12C6.404 148.574 6.705 148.034 7.018 147.509C7.164 147.262 7.319 147.027 7.47 146.785C7.702 146.41 7.935 146.035 8.175 145.671C8.352 145.406 8.534 145.15 8.715 144.891C8.94 144.567 9.166 144.243 9.398 143.929C9.594 143.665 9.794 143.409 9.993 143.151C10.222 142.857 10.45 142.565 10.684 142.281C10.894 142.025 11.106 141.776 11.32 141.527C11.553 141.258 11.786 140.993 12.023 140.732C12.247 140.488 12.472 140.247 12.698 140.009C12.935 139.763 13.174 139.522 13.414 139.285C13.649 139.052 13.885 138.822 14.124 138.597C14.364 138.373 14.608 138.155 14.853 137.938C15.098 137.72 15.343 137.502 15.592 137.292C15.836 137.087 16.083 136.893 16.33 136.697C16.586 136.494 16.841 136.287 17.101 136.091C17.343 135.91 17.59 135.741 17.836 135.567C18.105 135.377 18.372 135.18 18.645 135C18.855 134.86 19.068 134.735 19.279 134.601C19.884 134.219 20.495 133.863 21.111 133.531C21.316 133.42 21.519 133.302 21.725 133.197C22.034 133.04 22.347 132.899 22.658 132.753C22.886 132.648 23.111 132.538 23.34 132.438C23.649 132.303 23.961 132.184 24.273 132.062C24.505 131.97 24.737 131.877 24.971 131.793C25.283 131.68 25.596 131.58 25.909 131.479C26.144 131.405 26.378 131.33 26.613 131.262C26.929 131.171 27.243 131.089 27.56 131.011C27.794 130.954 28.027 130.899 28.263 130.848C28.58 130.779 28.898 130.716 29.216 130.661C29.448 130.621 29.68 130.586 29.912 130.551C30.233 130.505 30.554 130.462 30.874 130.43C31.102 130.407 31.328 130.392 31.556 130.376C31.881 130.352 32.206 130.33 32.53 130.32C32.747 130.314 32.963 130.319 33.18 130.319C33.514 130.32 33.847 130.318 34.179 130.334C34.37 130.343 34.561 130.365 34.751 130.378C35.106 130.406 35.462 130.428 35.815 130.473L36.119 130.158L36.003 130.211V130.21C43.726 122.265 47.617 99.7108 44.76 80.9478C40.005 49.7178 44.166 30.1998 53.064 18.2748C54.25 16.6848 55.521 15.2298 56.865 13.9008C57.537 13.2358 58.229 12.6018 58.937 11.9988C59.291 11.6968 59.649 11.4028 60.012 11.1158C61.101 10.2548 62.226 9.46179 63.385 8.72879C63.772 8.48579 64.161 8.24879 64.555 8.01779C73.608 2.72079 84.546 1.00079 95.483 1.00079H95.521H95.583H95.613H95.644H95.705H95.743C97.135 1.00079 98.527 1.02879 99.915 1.08779L100.167 1.09979C103.733 1.26279 107.273 1.63879 110.719 2.28979C111.131 2.36679 111.541 2.44879 111.95 2.53479C115.401 3.25679 118.749 4.26579 121.928 5.63079C124.307 6.65379 126.591 7.87779 128.751 9.32579C129.262 9.66879 129.766 10.0228 130.263 10.3908C136.499 15.0148 141.586 21.6958 144.779 31.1688C144.969 31.7308 145.151 32.3018 145.327 32.8828C145.855 34.6278 146.32 36.4618 146.722 38.3898C147.523 42.2458 148.063 46.4768 148.307 51.1158C148.349 51.9038 148.381 52.7038 148.405 53.5158C148.452 55.0928 148.467 56.7148 148.447 58.3838C148.438 59.2268 148.419 60.0818 148.392 60.9478C148.337 62.6798 148.247 64.4608 148.12 66.2898C147.804 70.8638 147.259 75.7428 146.466 80.9478C146.288 82.1208 146.136 83.3078 146.009 84.5048C145.755 86.9088 145.605 89.3528 145.552 91.8018C145.207 107.67 148.951 123.757 155.224 130.211L154.327 129.809L154.715 130.279H154.717C155.578 130.167 156.439 130.079 157.3 130.012H157.306C159.018 129.881 160.729 129.837 162.434 129.873C162.455 129.873 162.476 129.874 162.496 129.874C164.191 129.91 165.882 130.022 167.565 130.203C167.583 130.205 167.601 130.206 167.618 130.208C170.151 130.481 172.668 130.904 175.161 131.447L175.281 131.473C176.896 131.827 178.499 132.229 180.091 132.672L180.322 132.737C181.881 133.175 183.428 133.65 184.96 134.156C185.052 134.186 185.143 134.215 185.233 134.246C185.976 134.493 186.714 134.746 187.448 135.004C187.548 135.04 187.648 135.076 187.747 135.111C188.427 135.353 189.104 135.599 189.777 135.849C189.857 135.879 189.939 135.909 190.019 135.939C190.725 136.203 191.427 136.471 192.126 136.744C192.275 136.802 192.425 136.861 192.575 136.92C193.271 137.193 193.964 137.468 194.652 137.747C194.653 137.748 194.655 137.748 194.656 137.749C202.511 140.933 214.217 144.303 225.218 147.103C226.593 147.453 227.957 147.794 229.301 148.125C229.974 148.29 230.641 148.453 231.301 148.613C232.623 148.932 233.921 149.241 235.186 149.538C236.449 149.834 237.681 150.117 238.869 150.386C240.164 150.679 241.403 150.955 242.586 151.212C246.292 152.021 249.4 152.648 251.546 153.032C262.575 155.007 280.839 158.976 287.632 160.25C289.24 160.551 290.821 160.537 292.303 160.349C292.522 160.322 292.735 160.289 292.949 160.253C293.792 160.116 294.593 159.926 295.343 159.705C298.562 158.754 300.792 157.278 300.792 157.278L301.02 189.519L290.761 188.699C289.958 188.634 289.154 188.592 288.351 188.559C287.321 188.517 286.292 188.494 285.264 188.503C284.282 188.51 283.303 188.545 282.323 188.6C281.471 188.648 280.62 188.71 279.77 188.792C271.862 189.561 257.197 190.862 245.164 191.6C244.617 191.633 244.076 191.666 243.541 191.697C238.724 191.977 234.419 192.155 231.268 192.155C230.425 192.155 229.53 192.138 228.598 192.109C227.755 192.082 226.88 192.044 225.975 191.994C225.92 191.991 225.865 191.988 225.811 191.984C224.385 191.905 222.89 191.798 221.343 191.669C220.771 191.621 220.189 191.569 219.605 191.515C218.575 191.42 217.528 191.315 216.467 191.202C215.357 191.084 214.233 190.956 213.102 190.82C201.779 189.461 189.63 187.277 182.771 185.297C176.25 183.418 162.392 185.297 152.202 204.827C152.201 204.829 152.2 204.832 152.198 204.834C151.823 205.553 151.462 206.312 151.106 207.09C151.003 207.318 150.902 207.553 150.801 207.786C150.54 208.378 150.285 208.982 150.036 209.602C149.939 209.843 149.843 210.083 149.748 210.328C149.453 211.086 149.166 211.861 148.887 212.655C148.855 212.747 148.821 212.836 148.789 212.927C148.468 213.852 148.157 214.801 147.856 215.768C147.843 215.811 147.83 215.855 147.817 215.898C148.093 216.648 148.369 217.42 148.645 218.206C148.678 218.3 148.711 218.393 148.744 218.488C149.299 220.076 149.849 221.725 150.382 223.418C150.427 223.56 150.472 223.704 150.517 223.848C150.762 224.635 151.004 225.429 151.239 226.23C151.256 226.286 151.273 226.34 151.289 226.396C151.538 227.247 151.78 228.104 152.015 228.965C152.059 229.126 152.101 229.287 152.144 229.447C152.337 230.167 152.523 230.887 152.704 231.61C152.747 231.782 152.791 231.954 152.833 232.126C153.041 232.973 153.24 233.822 153.427 234.669C153.456 234.799 153.481 234.929 153.51 235.06C153.666 235.78 153.812 236.497 153.95 237.211C153.991 237.425 154.032 237.638 154.072 237.852C154.228 238.689 154.374 239.522 154.502 240.345C154.503 240.35 154.503 240.355 154.504 240.359C154.628 241.167 154.732 241.964 154.827 242.755C154.854 242.971 154.877 243.186 154.9 243.401C154.973 244.068 155.034 244.728 155.083 245.379C155.093 245.517 155.107 245.658 155.116 245.795C155.167 246.557 155.197 247.303 155.211 248.037C155.215 248.22 155.213 248.4 155.214 248.582C155.217 249.17 155.207 249.746 155.184 250.312C155.177 250.487 155.172 250.664 155.162 250.837C155.123 251.529 155.064 252.206 154.981 252.86C154.967 252.977 154.945 253.088 154.929 253.206C154.852 253.751 154.756 254.28 154.645 254.795C154.609 254.962 154.572 255.128 154.533 255.292C154.387 255.895 154.224 256.483 154.025 257.036C153.813 257.627 153.575 258.198 153.326 258.759V258.76C153.325 258.76 153.325 258.76 153.325 258.761C153.263 258.901 153.2 259.04 153.136 259.178C152.62 260.286 152.034 261.334 151.38 262.321H151.379V262.322C151.297 262.446 151.214 262.568 151.13 262.689C150.46 263.66 149.723 264.568 148.924 265.412C148.823 265.518 148.723 265.623 148.621 265.726C147.806 266.553 146.931 267.316 145.998 268.01H145.997C145.881 268.097 145.763 268.183 145.645 268.267C144.697 268.945 143.694 269.553 142.64 270.091C142.508 270.159 142.375 270.224 142.242 270.29H142.241C142.241 270.29 142.24 270.29 142.24 270.291C141.796 270.506 141.345 270.712 140.884 270.903C140.867 270.91 140.853 270.917 140.836 270.923C140.368 271.116 139.893 271.299 139.407 271.466C139.405 271.466 139.404 271.467 139.403 271.468C139.4 271.561 139.398 271.636 139.396 271.724C139.39 271.936 139.383 272.152 139.38 272.334C139.375 272.592 139.372 272.821 139.372 273.015V273.02L139.333 272.788L139.128 271.558C139.052 271.584 138.975 271.605 138.899 271.629C138.895 271.63 138.891 271.632 138.887 271.633C138.742 271.679 138.597 271.725 138.45 271.769C138.449 271.769 138.449 271.77 138.448 271.77H138.446C137.278 272.124 136.064 272.404 134.81 272.608V312.463H84.034H2.103C2.103 311.086 2.078 308.566 2.033 305.146C2.026 304.658 2.02 304.151 2.013 303.627C1.991 302.052 1.966 300.32 1.939 298.448C1.929 297.824 1.919 297.184 1.909 296.53C1.889 295.221 1.867 293.853 1.845 292.432C1.834 291.721 1.822 290.998 1.811 290.261C1.233 254.164 0 187.684 0 174.708C0 174.687 0.002 174.669 0.002 174.649Z" fill="white"/>
</g>
</g>
<g style="mix-blend-mode:multiply">
<path d="M2.85233 312.212C2.85233 299.628 0.749329 191.405 0.749329 174.456C0.749329 145.867 19.9913 128.135 36.5653 130.222L36.8693 129.907L36.7523 129.959C44.4753 122.014 48.3663 99.4594 45.5093 80.6974C35.3653 14.0734 65.7983 0.74939 96.2333 0.74939H96.2703C96.3013 0.74939 96.3313 0.75039 96.3633 0.75039C96.3933 0.75039 96.4243 0.74939 96.4553 0.74939H96.4933C126.926 0.74939 157.36 14.0734 147.215 80.6974C144.359 99.4594 148.249 122.014 155.973 129.959L155.076 129.558L155.464 130.027C169.266 128.237 182.998 132.467 195.406 137.497C211.114 143.865 242.231 150.98 252.295 152.78C263.325 154.756 281.588 158.725 288.381 159.998C295.173 161.272 301.541 157.026 301.541 157.026" stroke="#AFA4AF" stroke-width="1.5"/>
<path d="M301.769 189.268L291.51 188.448C287.849 188.155 284.174 188.185 280.519 188.54C269.017 189.66 243.219 191.904 232.017 191.904C219.011 191.904 194.496 188.212 183.519 185.046C176.999 183.166 163.141 185.046 152.952 204.576C151.297 207.747 149.842 211.521 148.565 215.642C153.288 228.507 158.332 246.889 154.774 256.785C154.562 257.376 154.324 257.947 154.075 258.509C154.013 258.65 153.95 258.789 153.885 258.927C153.37 260.035 152.783 261.083 152.128 262.07C152.046 262.194 151.963 262.316 151.879 262.438C151.208 263.41 150.471 264.318 149.672 265.163C149.573 265.267 149.472 265.372 149.371 265.474C148.556 266.302 147.68 267.065 146.747 267.759C146.63 267.846 146.512 267.932 146.394 268.017C145.447 268.694 144.443 269.303 143.388 269.841C143.256 269.908 143.123 269.974 142.991 270.039C142.08 270.483 141.135 270.879 140.152 271.217L139.877 271.307C139.797 271.333 139.715 271.357 139.635 271.382C139.491 271.429 139.344 271.475 139.198 271.519C138.029 271.872 136.815 272.153 135.559 272.357V312.212" stroke="#AFA4AF" stroke-width="1.5"/>
<path d="M301.542 157.027C301.542 157.027 295.174 161.272 288.382 159.999C281.589 158.725 263.325 154.756 252.296 152.781C242.231 150.98 211.114 143.866 195.406 137.498C179.698 131.13 161.868 126.036 144.461 132.828C127.056 139.621 120.263 136.224 117.291 132.403C114.319 128.583 113.47 113.299 113.47 113.299" stroke="#AFA4AF" stroke-width="1.5"/>
<path d="M148.563 215.642C149.841 211.52 151.296 207.747 152.952 204.576C163.141 185.046 177 183.166 183.519 185.046C194.496 188.212 219.011 191.904 232.017 191.904C243.219 191.904 269.017 189.66 280.519 188.54C284.174 188.185 287.849 188.155 291.51 188.448L301.769 189.268" stroke="#AFA4AF" stroke-width="1.5"/>
<path d="M135.559 312.212V272.357" stroke="#AFA4AF" stroke-width="1.5"/>
<path d="M78.3113 113.299C78.3113 113.299 77.4613 128.582 74.4903 132.403C71.5183 136.224 58.8743 138.253 41.4683 131.46C24.0623 124.668 0.749329 142.988 0.749329 174.456C0.749329 191.405 2.85233 299.628 2.85233 312.212" stroke="#AFA4AF" stroke-width="1.5"/>
<path d="M143.612 203.726C147.858 212.388 159.758 242.92 154.774 256.785C149.679 270.958 133.883 276.843 115.145 269.772" stroke="#AFA4AF" stroke-width="1.5"/>
<path d="M143.612 203.726C147.858 212.388 159.758 242.92 154.774 256.785C150.954 267.415 141.112 273.383 128.526 272.719C124.33 272.497 119.83 271.539 115.145 269.772" stroke="#AFA4AF" stroke-width="1.5"/>
<path fill-rule="evenodd" clip-rule="evenodd" d="M72.0271 22.9262L74.3241 32.8852C74.3241 32.8852 81.9761 61.1872 106.636 65.1972C120.813 67.5032 130.26 67.0382 135.726 66.2332C133.313 102.128 110.193 121.69 97.0231 122.737C97.0191 122.765 97.0171 122.784 97.0171 122.784C96.8391 122.784 96.6561 122.779 96.4741 122.771C96.2911 122.779 96.1081 122.784 95.9291 122.784C95.9291 122.784 95.9271 122.765 95.9241 122.737C82.0181 121.631 57.0021 99.8952 57.0021 60.0712C57.0021 39.8522 63.7291 28.8682 72.0271 22.9262Z" stroke="#AFA4AF" stroke-width="1.5"/>
<path d="M45.7322 80.6977C35.5872 14.0737 66.0212 0.749695 96.4552 0.749695H96.4932C126.926 0.749695 157.36 14.0737 147.215 80.6977C144.359 99.4597 148.25 122.014 155.973 129.96" stroke="#AFA4AF" stroke-width="1.5"/>
<path d="M146.994 80.6977C157.139 14.0737 126.705 0.749695 96.2699 0.749695H96.2329C65.7989 0.749695 35.3649 14.0737 45.5099 80.6977C48.3659 99.4597 44.4749 122.014 36.7529 129.96" stroke="#AFA4AF" stroke-width="1.5"/>
<path d="M141.614 64.8637C141.614 64.8637 131.229 69.1967 106.636 65.1967C81.977 61.1867 74.324 32.8847 74.324 32.8847L70.509 16.3407" stroke="#AFA4AF" stroke-width="1.5"/>
<path fill-rule="evenodd" clip-rule="evenodd" d="M30.9128 268.546L29.2448 312.212L30.9128 268.546Z" fill="white"/>
<path d="M30.9128 268.546L29.2448 312.212" stroke="#AFA4AF" stroke-width="1.5"/>
<path fill-rule="evenodd" clip-rule="evenodd" d="M34.1228 184.478L33.0428 212.755L34.1228 184.478Z" fill="white"/>
<path d="M34.1228 184.478L33.0428 212.755" stroke="#AFA4AF" stroke-width="1.5"/>
<path d="M38.0417 202.289C33.7957 210.951 16.7867 242.92 21.7707 256.784C25.4667 267.064 34.7907 272.983 46.7837 272.763C51.3267 272.68 56.2527 271.715 61.3997 269.771" stroke="#AFA4AF" stroke-width="1.5"/>
<path fill-rule="evenodd" clip-rule="evenodd" d="M210.38 169.818C210.721 169.883 211.143 169.176 211.323 168.239C211.505 167.301 211.375 166.487 211.035 166.422L235.081 171.055C235.421 171.121 235.55 171.934 235.369 172.872C235.189 173.81 234.767 174.517 234.427 174.453L210.38 169.818Z" fill="#0C6350"/>
<path fill-rule="evenodd" clip-rule="evenodd" d="M210.38 169.818C210.721 169.883 211.143 169.176 211.323 168.239C211.505 167.301 211.375 166.487 211.035 166.422L235.081 171.055C235.421 171.121 235.55 171.934 235.369 172.872C235.189 173.81 234.767 174.517 234.427 174.453L210.38 169.818Z" fill="#503850"/>
<path fill-rule="evenodd" clip-rule="evenodd" d="M210.38 169.818V169.818C210.721 169.883 211.143 169.176 211.323 168.239C211.505 167.301 211.375 166.487 211.035 166.422L235.081 171.055C235.421 171.121 235.55 171.934 235.369 172.872C235.189 173.81 234.767 174.517 234.427 174.453L210.38 169.818Z" stroke="#503850" stroke-width="0.75"/>
<path fill-rule="evenodd" clip-rule="evenodd" d="M210.38 169.818C210.721 169.883 211.143 169.176 211.323 168.239C211.505 167.301 211.375 166.487 211.035 166.422C210.694 166.356 210.272 167.063 210.092 168.001C209.911 168.938 210.04 169.753 210.38 169.818Z" stroke="#503850" stroke-width="0.75"/>
</g>
</svg>
