<svg width="217" height="225" viewBox="0 0 217 225" fill="none" xmlns="http://www.w3.org/2000/svg">
<mask id="mask0" mask-type="alpha" maskUnits="userSpaceOnUse" x="1" y="0" width="216" height="225">
<path fill-rule="evenodd" clip-rule="evenodd" d="M1.00012 0H216.399V224.24H1.00012V0Z" fill="white"/>
</mask>
<g mask="url(#mask0)">
<path opacity="0.35" fill-rule="evenodd" clip-rule="evenodd" d="M214.23 63.433C213.275 61.815 212.772 59.971 212.687 58.094C212.591 55.989 212.454 53.485 212.244 52.267C211.886 50.182 209.431 48.755 207.412 49.385C205.498 49.98 204.532 51.509 203.891 53.409C203.449 54.72 202.988 56.524 202.575 57.844C202.347 58.571 201.892 59.196 201.281 59.651C195.46 63.993 189.548 74.719 189.7 81.746C189.789 85.888 178.023 107.807 172.531 117.998C170.733 121.334 168.91 123.723 166.933 125.38L166.926 125.19C164.195 64.297 159.492 2.604 159.492 2.604L23.8573 0C25.8263 20.262 25.4813 65.317 12.3163 89.259C-0.849736 113.203 -3.35974 161.298 9.22226 190.173C21.8053 219.049 22.1643 224.24 22.1643 224.24H168.593C168.919 213.583 168.891 189.28 168.617 175.149C170.704 167.689 174.269 158.918 181.474 150.325C182.447 149.164 183.485 148.007 184.597 146.858C207.813 122.815 215.291 90.592 216.346 74.276C216.571 70.811 216.118 66.637 214.23 63.433Z" fill="white"/>
</g>
<g style="mix-blend-mode:multiply">
<path d="M168.344 224.312C168.672 213.606 168.642 189.121 168.365 175.019" stroke="#AFA4AF" stroke-width="1.5"/>
<path d="M166.677 125.262C163.947 64.3695 159.242 2.67554 159.242 2.67554" stroke="#AFA4AF" stroke-width="1.5"/>
<path d="M23.6074 0.0732422C25.5764 20.3352 25.2314 65.3892 12.0654 89.3322C-1.0996 113.275 -3.6106 161.371 8.9724 190.246C21.5554 219.122 21.9144 224.312 21.9144 224.312" stroke="#AFA4AF" stroke-width="1.5"/>
<path d="M129.359 115.719C129.359 115.719 136.19 180.159 131.489 215.24" stroke="#AFA4AF" stroke-width="1.5"/>
<path d="M165.425 126.41C167.903 124.773 170.108 122.104 172.281 118.071C177.774 107.879 189.539 85.9602 189.45 81.8192C189.299 74.7922 195.212 64.0652 201.031 59.7232C201.643 59.2682 202.098 58.6432 202.325 57.9162C202.738 56.5972 203.2 54.7932 203.642 53.4802C204.282 51.5822 205.248 50.0532 207.162 49.4572C209.182 48.8282 211.637 50.2542 211.994 52.3402C212.204 53.5572 212.343 56.0612 212.438 58.1672C212.523 60.0432 213.026 61.8872 213.981 63.5052C215.868 66.7092 216.321 70.8832 216.097 74.3472C215.042 90.6642 207.564 122.888 184.347 146.93C183.567 147.737 182.821 148.549 182.111 149.362" stroke="#503850" stroke-width="1.5"/>
<path d="M164.305 192.417C160.903 200.734 152.946 208.127 139.76 198.916" stroke="#AFA4AF" stroke-width="1.5"/>
<path d="M179.472 152.583C166.656 169.298 166.845 186.209 164.305 192.417C160.903 200.734 152.946 208.127 139.76 198.916" stroke="#AFA4AF" stroke-width="1.5"/>
<path d="M151.313 127.886C154.982 128.581 158.076 128.808 160.799 128.282" stroke="#AFA4AF" stroke-width="1.5"/>
<path fill-rule="evenodd" clip-rule="evenodd" d="M161.514 128.181L179.17 152.256C179.859 153.189 181.174 153.386 182.107 152.698C183.039 152.009 183.238 150.694 182.548 149.759L164.894 125.685C164.204 124.752 162.889 124.554 161.955 125.243C161.023 125.933 160.825 127.248 161.514 128.181Z" stroke="#503850" stroke-width="1.5"/>
</g>
</svg>
