<svg width="231" height="250" viewBox="0 0 231 250" fill="none" xmlns="http://www.w3.org/2000/svg">
<g opacity="0.353795">
<mask id="mask0" mask-type="alpha" maskUnits="userSpaceOnUse" x="0" y="0" width="230" height="250">
<path fill-rule="evenodd" clip-rule="evenodd" d="M0 0.000732422H229.87V249.68H0V0.000732422Z" fill="white"/>
</mask>
<g mask="url(#mask0)">
<path fill-rule="evenodd" clip-rule="evenodd" d="M7.04233 76.0237C19.7133 54.1777 19.7133 15.7287 20.1503 0.000732422C20.1503 0.000732422 125.61 0.390732 148.371 0.390732C148.371 0.390732 137.71 29.8057 148.371 51.4267C157.147 48.6537 196.785 36.3317 205.403 34.5167L229.87 127.143C229.87 127.143 204.078 141.595 159.349 156.351C164.628 184.234 171.578 229.179 165.53 246.862L65.5903 249.68C65.5903 249.68 61.7593 213.324 57.2883 193.555C55.5783 185.994 51.2473 177.448 46.1783 169.352C34.5783 164.778 26.4513 157.617 18.4023 150.299C-0.821674 132.823 -5.62767 97.8707 7.04233 76.0237Z" fill="white"/>
</g>
</g>
<g style="mix-blend-mode:multiply">
<path d="M20.9007 0.0205078C20.4637 15.7495 20.4637 54.1985 7.79271 76.0435C-4.87729 97.8905 -0.0722885 132.844 19.1527 150.321C38.3777 167.797 58.0397 184.399 124.45 166.923C190.861 149.447 230.621 127.165 230.621 127.165" stroke="#AFA4AF" stroke-width="1.5"/>
<path d="M116.148 62.0624C116.148 62.0624 189.551 38.0324 206.154 34.5374" stroke="#AFA4AF" stroke-width="1.5"/>
<path d="M46.928 169.372C51.997 177.468 56.328 186.014 58.038 193.575C62.509 213.344 66.34 249.7 66.34 249.7" stroke="#AFA4AF" stroke-width="1.5"/>
<path d="M160.099 156.371C165.378 184.255 172.328 229.2 166.281 246.882" stroke="#AFA4AF" stroke-width="1.5"/>
<path d="M149.121 0.410889C139.509 23.5669 147.605 51.1399 147.605 51.1399" stroke="#AFA4AF" stroke-width="1.5"/>
<path d="M100.535 135.862C90.9785 124.228 70.6665 103.372 66.7995 95.8782C61.9575 86.4972 76.4805 68.3422 91.0055 61.9892C105.529 55.6342 122.49 61.8802 124.894 70.7632C127.682 81.0752 114.347 88.7442 103.344 87.7432C97.0255 87.1702 95.1745 84.2422 89.1735 85.2432C85.5425 85.8472 87.2595 89.1932 91.3065 94.0622C95.3415 98.9132 110.975 124.924 121.868 132.792" stroke="#AFA4AF" stroke-width="1.5"/>
<path d="M95.1292 99.7705C99.1622 104.623 110.741 125.258 121.867 132.792C127.337 136.497 135.388 138.597 135.388 138.597" stroke="#AFA4AF" stroke-width="1.5"/>
<path d="M95.1292 99.7705C99.1622 104.623 110.741 125.258 121.867 132.792C127.337 136.497 135.388 138.597 135.388 138.597" stroke="#503850" stroke-width="1.5"/>
<path d="M66.802 95.0635C70.491 103.545 94.78 128.084 103.321 139.134C105.209 141.579 106.263 144.559 106.313 147.646C106.364 150.765 106.249 154.862 105.462 157.321" stroke="#AFA4AF" stroke-width="1.5"/>
<path d="M66.802 95.0635C70.491 103.545 94.78 128.084 103.321 139.134C105.209 141.579 106.263 144.559 106.313 147.646C106.364 150.765 106.249 154.862 105.462 157.321" stroke="#503850" stroke-width="1.5"/>
<path d="M67.1663 86.243C73.1683 85.076 81.5043 87.576 83.0043 85.41C84.4253 83.357 91.2233 77.87 106.228 77.149C107.74 77.076 108.971 75.902 109.134 74.396C109.338 72.508 107.809 70.883 105.911 70.977C100.251 71.26 89.1183 72.521 81.3383 77.907C70.5013 85.41 74.1693 76.24 74.1693 76.24" stroke="#AFA4AF" stroke-width="1.5"/>
<path fill-rule="evenodd" clip-rule="evenodd" d="M66.7454 94.4228C67.1354 92.5668 73.8494 92.4038 81.7444 94.0588C89.6394 95.7138 95.7244 98.5598 95.3354 100.415C94.9454 102.272 88.2294 102.436 80.3354 100.78C72.4404 99.1248 66.3554 96.2788 66.7454 94.4228Z" stroke="#503850" stroke-width="1.5"/>
<path d="M105.982 159.686C108.355 163.387 117.161 161.974 125.651 156.531C134.141 151.086 139.099 143.672 136.726 139.972C134.353 136.271 125.547 137.684 117.058 143.128C108.567 148.573 103.609 155.985 105.982 159.686" stroke="#503850" stroke-width="1.5"/>
<path fill-rule="evenodd" clip-rule="evenodd" d="M105.982 159.686C108.355 163.387 117.161 161.974 125.651 156.531C134.141 151.086 139.099 143.672 136.726 139.972C134.353 136.271 125.547 137.684 117.058 143.128C108.567 148.573 103.609 155.985 105.982 159.686Z" stroke="#AFA4AF" stroke-width="1.5"/>
<path d="M20.9007 0.0205078C20.4637 15.7495 20.4637 54.1985 7.79271 76.0435C-4.87729 97.8905 -0.0722885 132.844 19.1527 150.321C38.3777 167.797 58.0397 184.399 124.45 166.923C190.861 149.447 230.621 127.165 230.621 127.165" stroke="#AFA4AF" stroke-width="1.5"/>
<path d="M116.148 62.0624C116.148 62.0624 189.551 38.0324 206.154 34.5374" stroke="#AFA4AF" stroke-width="1.5"/>
<path d="M46.928 169.372C51.997 177.468 56.328 186.014 58.038 193.575C62.509 213.344 66.34 249.7 66.34 249.7" stroke="#AFA4AF" stroke-width="1.5"/>
<path d="M160.099 156.371C165.378 184.255 172.328 229.2 166.281 246.882" stroke="#AFA4AF" stroke-width="1.5"/>
<path d="M149.121 0.410889C139.509 23.5669 147.605 51.1399 147.605 51.1399" stroke="#AFA4AF" stroke-width="1.5"/>
</g>
</svg>
