<svg width="285" height="234" viewBox="0 0 285 234" fill="none" xmlns="http://www.w3.org/2000/svg">
<g opacity="0.353237">
<mask id="mask0" mask-type="alpha" maskUnits="userSpaceOnUse" x="0" y="1" width="284" height="232">
<path fill-rule="evenodd" clip-rule="evenodd" d="M0 1.00031H283.062V232.634H0V1.00031Z" fill="white"/>
</mask>
<g mask="url(#mask0)">
<path fill-rule="evenodd" clip-rule="evenodd" d="M267.347 81.3953C245.586 26.6913 240.448 10.3703 240.448 1.00031H140.239H119.384H42.6155C42.6155 10.3703 37.4775 26.6913 15.7155 81.3953C-6.04546 136.1 1.13454 232.634 1.13454 232.634H129.507L131.494 189.861C137.854 192.046 141.532 187.454 141.532 187.454C141.532 187.454 145.21 192.046 151.57 189.861L153.556 232.634H281.928C281.928 232.634 289.108 136.1 267.347 81.3953Z" fill="white"/>
</g>
</g>
<g style="mix-blend-mode:multiply">
<path fill-rule="evenodd" clip-rule="evenodd" d="M268.097 81.1453C246.336 26.4413 241.198 10.1203 241.198 0.750305H140.989H120.134H43.3655C43.3655 10.1203 38.2275 26.4413 16.4655 81.1453C-5.29546 135.85 1.88454 232.384 1.88454 232.384H130.257L132.244 189.611C138.604 191.796 142.282 187.204 142.282 187.204C142.282 187.204 145.96 191.796 152.32 189.611L154.306 232.384H282.678C282.678 232.384 289.858 135.85 268.097 81.1453Z" stroke="#AFA4AF" stroke-width="1.5"/>
<path d="M71.7029 120.318C77.4649 123.904 85.3079 109.835 80.0689 103.672C79.0529 102.475 77.1929 102.448 76.0749 103.549" stroke="#AFA4AF" stroke-width="1.5" stroke-linejoin="round"/>
<path d="M215.703 105.088L216.233 105.618L216.233 105.618L215.703 105.088ZM208.487 103.55L207.96 104.084L207.961 104.084L208.487 103.55ZM207.279 102.865L206.949 103.538C206.99 103.558 207.032 103.574 207.076 103.587L207.279 102.865ZM189.259 106.615L188.791 106.029L188.79 106.029L189.259 106.615ZM183.892 101.011L183.244 101.388L183.244 101.388L183.892 101.011ZM180.305 97.4387L179.962 96.7717C179.719 96.8967 179.563 97.1443 179.555 97.4176C179.548 97.691 179.689 97.9469 179.925 98.0854L180.305 97.4387ZM199.863 88.5587L199.555 87.8748L199.555 87.8748L199.863 88.5587ZM217.733 91.4827L217.103 91.8904L217.104 91.8906L217.733 91.4827ZM100.671 101.011L101.319 101.388L101.319 101.388L100.671 101.011ZM95.3049 106.615L95.7737 106.029L95.7732 106.029L95.3049 106.615ZM77.2829 102.865L76.9529 102.191C76.6396 102.345 76.4735 102.694 76.5523 103.034C76.6311 103.374 76.934 103.615 77.2829 103.615V102.865ZM77.2839 102.865L77.4869 103.587C77.8476 103.485 78.0781 103.133 78.0269 102.762C77.9757 102.391 77.6586 102.115 77.2839 102.115V102.865ZM76.0749 103.55L75.5492 103.015L75.5485 103.015L76.0749 103.55ZM68.8599 105.088L68.3295 105.618L68.3297 105.618L68.8599 105.088ZM66.8299 91.4827L67.4592 91.8907L67.4593 91.8905L66.8299 91.4827ZM84.6989 88.5587L84.391 89.2426L84.3912 89.2426L84.6989 88.5587ZM104.259 97.4387L104.638 98.0856C104.874 97.9472 105.016 97.6913 105.009 97.4178C105.001 97.1444 104.845 96.8968 104.602 96.7717L104.259 97.4387ZM222.33 88.4207L221.731 88.8726L221.731 88.8727L222.33 88.4207ZM187.476 84.1727L187.565 84.9174L187.565 84.9174L187.476 84.1727ZM163.709 82.2177L163.958 81.5103C163.697 81.4182 163.406 81.4778 163.202 81.6653C162.997 81.8528 162.913 82.1376 162.983 82.4059L163.709 82.2177ZM163.723 82.2717L163.519 82.9933C163.777 83.0665 164.055 82.9958 164.247 82.8079C164.439 82.62 164.516 82.3436 164.449 82.0835L163.723 82.2717ZM120.84 82.2717L120.114 82.0835C120.046 82.3436 120.123 82.62 120.316 82.8079C120.508 82.9958 120.786 83.0665 121.044 82.9933L120.84 82.2717ZM120.854 82.2177L121.58 82.4059C121.649 82.1376 121.565 81.8528 121.361 81.6653C121.157 81.4778 120.866 81.4182 120.605 81.5103L120.854 82.2177ZM97.0859 84.1727L96.997 84.9174L96.997 84.9174L97.0859 84.1727ZM62.2329 88.4207L62.8315 88.8727L62.8315 88.8726L62.2329 88.4207ZM71.6019 120.253L72.1082 119.699C72.0776 119.671 72.0448 119.646 72.0101 119.623L71.6019 120.253ZM72.7659 121.129L72.3679 121.764L72.3702 121.766L72.7659 121.129ZM92.0849 118.659L91.6203 118.07L91.6202 118.07L92.0849 118.659ZM103.935 103.743L104.614 104.062L104.614 104.062L103.935 103.743ZM108.434 99.7307L108.8 99.076C108.611 98.9703 108.385 98.9516 108.181 99.0246L108.434 99.7307ZM108.533 99.7887L108.92 99.1461C108.915 99.1436 108.911 99.1411 108.907 99.1387L108.533 99.7887ZM115.895 108.911L115.187 109.159L115.187 109.16L115.895 108.911ZM118.113 113.992L118.776 113.642L118.776 113.642L118.113 113.992ZM122.063 126.158L121.321 126.266L121.321 126.266L122.063 126.158ZM123.274 134.483L122.532 134.591L122.532 134.591L123.274 134.483ZM128.14 149.921L128.812 149.588L128.812 149.588L128.14 149.921ZM130.933 165.111L131.68 165.182V165.182L130.933 165.111ZM128.977 185.589L128.23 185.517V185.517L128.977 185.589ZM132.633 189.611L133.041 188.982C132.92 188.903 132.778 188.861 132.633 188.861V189.611ZM132.975 189.833L132.567 190.462C132.632 190.504 132.703 190.536 132.778 190.556L132.975 189.833ZM137.041 190.084L137.161 190.824C137.524 190.765 137.791 190.452 137.791 190.084H137.041ZM134.767 154.908H134.017C134.017 155.007 134.037 155.106 134.075 155.198L134.767 154.908ZM131.889 149.942L131.534 150.602L131.535 150.603L131.889 149.942ZM131.568 147.252L131.084 146.679L131.083 146.68L131.568 147.252ZM133.799 147.386L134.319 146.845L134.319 146.845L133.799 147.386ZM136.763 150.239L137.283 149.699L137.283 149.698L136.763 150.239ZM140.435 149.574L139.753 149.262L139.753 149.262L140.435 149.574ZM137.148 123.652L136.476 123.984V123.984L137.148 123.652ZM132.183 113.608L131.511 113.94L131.511 113.94L132.183 113.608ZM130.353 105.669L129.603 105.676V105.676L130.353 105.669ZM123.575 95.6247L123.863 94.9321L123.862 94.932L123.575 95.6247ZM117.211 92.9827L117.498 92.29L117.498 92.2899L117.211 92.9827ZM115.651 92.4347L115.442 93.155L115.443 93.1553L115.651 92.4347ZM112.171 91.4257L112.38 90.7054L112.379 90.7052L112.171 91.4257ZM111.057 89.9017L111.804 89.9625L111.805 89.9605L111.057 89.9017ZM112.649 88.5657L112.573 89.3118L112.573 89.3118L112.649 88.5657ZM119.822 89.2897L119.897 88.5435L119.897 88.5434L119.822 89.2897ZM131.876 91.0287L132.015 90.2917L132.015 90.2917L131.876 91.0287ZM135.731 91.7557L135.592 92.4927L135.592 92.4927L135.731 91.7557ZM148.832 91.7557L148.971 92.4927L148.971 92.4927L148.832 91.7557ZM152.686 91.0287L152.547 90.2917L152.547 90.2917L152.686 91.0287ZM164.74 89.2897L164.815 90.0359L164.815 90.0359L164.74 89.2897ZM171.833 88.5737L171.757 87.8275L171.757 87.8275L171.833 88.5737ZM173.442 89.5717L174.158 89.3473L174.157 89.347L173.442 89.5717ZM172.464 91.4047L172.255 90.6843L172.255 90.6844L172.464 91.4047ZM168.912 92.4347L168.703 91.7144L168.703 91.7144L168.912 92.4347ZM167.349 92.9837L167.062 92.2909L167.061 92.291L167.349 92.9837ZM160.987 95.6247L160.699 94.932L160.699 94.9321L160.987 95.6247ZM154.208 105.632L154.958 105.625V105.625L154.208 105.632ZM152.38 113.608L153.052 113.94L153.052 113.94L152.38 113.608ZM147.414 123.653L146.742 123.32L146.742 123.32L147.414 123.653ZM144.127 149.574L143.444 149.884L143.445 149.885L144.127 149.574ZM147.8 150.239L148.32 150.779L148.32 150.779L147.8 150.239ZM150.764 147.386L150.244 146.845L150.244 146.845L150.764 147.386ZM152.994 147.252L152.509 147.824L152.51 147.824L152.994 147.252ZM152.674 149.942L153.028 150.603L153.029 150.602L152.674 149.942ZM149.796 154.908L150.487 155.198C150.526 155.106 150.546 155.007 150.546 154.908H149.796ZM147.521 190.084H146.771C146.771 190.452 147.038 190.765 147.401 190.824L147.521 190.084ZM151.587 189.833L151.784 190.556C151.858 190.536 151.93 190.504 151.994 190.462L151.587 189.833ZM151.93 189.611V188.861C151.785 188.861 151.644 188.902 151.522 188.981L151.93 189.611ZM155.585 185.589L154.838 185.66L154.838 185.66L155.585 185.589ZM153.63 165.111L154.377 165.039L154.377 165.039L153.63 165.111ZM156.423 149.921L155.751 149.588L155.751 149.588L156.423 149.921ZM161.288 134.483L160.546 134.375L160.546 134.375L161.288 134.483ZM162.5 126.158L163.242 126.266L163.242 126.265L162.5 126.158ZM166.333 114.21L165.672 113.855L165.672 113.855L166.333 114.21ZM168.667 108.911L169.374 109.159L169.374 109.159L168.667 108.911ZM176.029 99.7887L175.653 99.1398L175.642 99.1461L176.029 99.7887ZM176.129 99.7307L176.382 99.0246C176.174 98.9501 175.944 98.9711 175.753 99.0819L176.129 99.7307ZM180.628 103.743L181.307 103.423L181.306 103.423L180.628 103.743ZM192.478 118.659L192.943 118.07L192.943 118.07L192.478 118.659ZM211.796 121.129L212.192 121.766L212.193 121.765L211.796 121.129ZM212.96 120.253L212.552 119.623C212.516 119.646 212.483 119.672 212.452 119.701L212.96 120.253ZM215.173 104.557C214.676 105.054 214.177 105.287 213.695 105.366C213.204 105.446 212.676 105.373 212.122 105.172C210.994 104.764 209.883 103.872 209.013 103.015L207.961 104.084C208.879 104.989 210.177 106.063 211.611 106.583C212.338 106.846 213.129 106.977 213.936 106.846C214.753 106.713 215.532 106.319 216.233 105.618L215.173 104.557ZM209.013 103.016C208.564 102.572 208.025 102.295 207.482 102.143L207.076 103.587C207.415 103.682 207.718 103.845 207.96 104.084L209.013 103.016ZM207.609 102.191C204.153 100.498 199.984 101.047 196.502 102.167C193.003 103.292 190.011 105.053 188.791 106.029L189.727 107.2C190.792 106.35 193.617 104.67 196.961 103.595C200.321 102.515 204.02 102.103 206.949 103.538L207.609 102.191ZM188.79 106.029C188.563 106.211 188.394 106.277 188.279 106.297C188.172 106.316 188.069 106.304 187.948 106.25C187.667 106.124 187.321 105.782 186.915 105.159C186.523 104.557 186.145 103.805 185.751 102.996C185.365 102.205 184.961 101.357 184.54 100.633L183.244 101.388C183.63 102.051 184.003 102.835 184.402 103.654C184.793 104.454 185.208 105.287 185.658 105.978C186.094 106.648 186.638 107.306 187.334 107.619C187.703 107.784 188.11 107.851 188.541 107.774C188.963 107.699 189.358 107.496 189.728 107.2L188.79 106.029ZM184.54 100.634C183.495 98.8364 182.175 97.6674 180.685 96.792L179.925 98.0854C181.227 98.85 182.347 99.845 183.244 101.388L184.54 100.634ZM180.648 98.1057C187.435 94.6159 195.781 91.2188 200.171 89.2426L199.555 87.8748C195.247 89.8146 186.793 93.2595 179.962 96.7717L180.648 98.1057ZM200.171 89.2426C204.494 87.2963 208.091 86.983 210.905 87.6269C213.715 88.27 215.801 89.8796 217.103 91.8904L218.362 91.0749C216.855 88.7478 214.443 86.8979 211.239 86.1647C208.039 85.4324 204.106 85.8261 199.555 87.8748L200.171 89.2426ZM217.104 91.8906C218.428 93.9332 218.636 96.406 218.147 98.7527C217.658 101.106 216.484 103.245 215.173 104.557L216.233 105.618C217.772 104.079 219.073 101.668 219.616 99.0582C220.16 96.4414 219.958 93.5371 218.362 91.0748L217.104 91.8906ZM100.023 100.633C99.6017 101.357 99.1985 102.205 98.8128 102.996C98.4182 103.805 98.0401 104.557 97.6481 105.159C97.2425 105.782 96.8963 106.124 96.6152 106.25C96.4948 106.304 96.3917 106.316 96.2848 106.297C96.1696 106.277 96.0005 106.211 95.7737 106.029L94.8361 107.2C95.2053 107.496 95.6005 107.699 96.0228 107.774C96.4533 107.851 96.8607 107.784 97.2291 107.619C97.9254 107.306 98.4691 106.648 98.9052 105.978C99.355 105.287 99.7705 104.454 100.161 103.653C100.56 102.835 100.933 102.051 101.319 101.388L100.023 100.633ZM95.7732 106.029C94.552 105.053 91.5602 103.292 88.061 102.167C84.5784 101.047 80.4096 100.498 76.9529 102.191L77.6129 103.538C80.5423 102.103 84.2415 102.515 87.6018 103.595C90.9457 104.67 93.7718 106.35 94.8367 107.201L95.7732 106.029ZM77.2829 103.615H77.2839V102.115H77.2829V103.615ZM77.0809 102.143C76.5374 102.296 75.9995 102.572 75.5492 103.015L76.6006 104.085C76.8444 103.845 77.1484 103.682 77.4869 103.587L77.0809 102.143ZM75.5485 103.015C74.6796 103.872 73.5681 104.764 72.4408 105.172C71.8867 105.373 71.3592 105.446 70.8677 105.366C70.3858 105.287 69.8871 105.054 69.3902 104.557L68.3297 105.618C69.0312 106.319 69.8103 106.713 70.6267 106.846C71.4335 106.977 72.2249 106.846 72.9516 106.583C74.3857 106.063 75.6833 104.989 76.6014 104.084L75.5485 103.015ZM69.3904 104.557C68.0786 103.245 66.9047 101.106 66.4151 98.7527C65.9268 96.406 66.1348 93.9333 67.4592 91.8907L66.2006 91.0747C64.604 93.5371 64.4021 96.4414 64.9465 99.0582C65.4896 101.668 66.7912 104.079 68.3295 105.618L69.3904 104.557ZM67.4593 91.8905C68.7624 89.8796 70.8485 88.27 73.6585 87.6269C76.472 86.983 80.0683 87.2963 84.391 89.2426L85.0068 87.8748C80.4565 85.8261 76.5239 85.4324 73.3239 86.1647C70.1203 86.8979 67.7084 88.7478 66.2005 91.0748L67.4593 91.8905ZM84.3912 89.2426C88.7824 91.2187 97.1279 94.616 103.916 98.1057L104.602 96.7717C97.7699 93.2594 89.3175 89.8146 85.0067 87.8748L84.3912 89.2426ZM103.879 96.7918C102.387 97.6673 101.068 98.8365 100.023 100.634L101.319 101.388C102.216 99.8449 103.335 98.8501 104.638 98.0856L103.879 96.7918ZM222.928 87.9688C220.703 85.0208 218.193 83.1417 215.451 82.028C212.717 80.9177 209.794 80.5848 206.76 80.666C203.731 80.7469 200.558 81.2422 197.323 81.8103C194.071 82.3814 190.762 83.0249 187.387 83.428L187.565 84.9174C190.993 84.5079 194.367 83.8524 197.582 83.2877C200.814 82.7202 203.891 82.2432 206.8 82.1654C209.703 82.0878 212.405 82.4097 214.887 83.4177C217.36 84.4223 219.657 86.1251 221.731 88.8726L222.928 87.9688ZM187.387 83.428C180.669 84.2299 174.8 83.7472 170.611 83.064C168.518 82.7225 166.847 82.3314 165.702 82.0268C165.13 81.8745 164.69 81.7439 164.395 81.6522C164.247 81.6063 164.136 81.5701 164.063 81.5457C164.026 81.5335 163.999 81.5243 163.981 81.5183C163.973 81.5153 163.966 81.5131 163.962 81.5118C163.96 81.5111 163.959 81.5106 163.958 81.5104C163.958 81.5103 163.958 81.5102 163.958 81.5102C163.958 81.5102 163.958 81.5102 163.958 81.5102C163.958 81.5102 163.958 81.5103 163.709 82.2177C163.46 82.9251 163.46 82.9252 163.46 82.9253C163.46 82.9253 163.461 82.9254 163.461 82.9255C163.462 82.9257 163.462 82.926 163.463 82.9263C163.465 82.9269 163.467 82.9277 163.47 82.9288C163.476 82.9309 163.485 82.9338 163.496 82.9375C163.517 82.945 163.549 82.9556 163.59 82.9693C163.672 82.9966 163.793 83.0357 163.949 83.0845C164.263 83.1821 164.723 83.3184 165.316 83.4763C166.503 83.792 168.222 84.1941 170.37 84.5444C174.663 85.2447 180.678 85.7395 187.565 84.9174L187.387 83.428ZM162.983 82.4059L162.997 82.4599L164.449 82.0835L164.435 82.0295L162.983 82.4059ZM163.927 81.5501C158.221 79.9346 149.594 77.9007 142.281 77.9007V79.4007C149.376 79.4007 157.837 81.3848 163.519 82.9933L163.927 81.5501ZM142.281 77.9007C134.968 77.9007 126.342 79.9346 120.636 81.5501L121.044 82.9933C126.726 81.3848 135.186 79.4007 142.281 79.4007V77.9007ZM121.566 82.4599L121.58 82.4059L120.128 82.0295L120.114 82.0835L121.566 82.4599ZM120.854 82.2177C120.605 81.5103 120.605 81.5102 120.605 81.5102C120.605 81.5102 120.605 81.5102 120.605 81.5102C120.605 81.5102 120.605 81.5103 120.604 81.5104C120.604 81.5106 120.602 81.5111 120.6 81.5118C120.597 81.5131 120.59 81.5153 120.582 81.5183C120.564 81.5243 120.537 81.5335 120.5 81.5457C120.427 81.5701 120.316 81.6063 120.168 81.6522C119.873 81.7439 119.433 81.8745 118.861 82.0268C117.716 82.3313 116.045 82.7225 113.951 83.064C109.763 83.7472 103.893 84.2299 97.1748 83.428L96.997 84.9174C103.885 85.7395 109.899 85.2447 114.193 84.5444C116.341 84.1941 118.06 83.792 119.246 83.4763C119.84 83.3184 120.3 83.1821 120.613 83.0845C120.77 83.0357 120.891 82.9966 120.973 82.9693C121.014 82.9556 121.045 82.945 121.067 82.9375C121.078 82.9338 121.087 82.9309 121.093 82.9288C121.096 82.9277 121.098 82.9269 121.1 82.9263C121.101 82.926 121.101 82.9257 121.102 82.9255C121.102 82.9254 121.102 82.9253 121.103 82.9253C121.103 82.9252 121.103 82.9251 120.854 82.2177ZM97.1749 83.428C93.8005 83.025 90.4911 82.3814 87.2398 81.8103C84.0046 81.2422 80.8319 80.7469 77.803 80.666C74.7691 80.5848 71.8455 80.9177 69.1118 82.028C66.3698 83.1417 63.8603 85.0208 61.6344 87.9688L62.8315 88.8726C64.9061 86.1251 67.2028 84.4223 69.6763 83.4177C72.1581 82.4097 74.8593 82.0878 77.7629 82.1654C80.6715 82.2432 83.749 82.7202 86.9803 83.2877C90.1955 83.8524 93.5688 84.5079 96.997 84.9174L97.1749 83.428ZM61.6344 87.9687C56.7823 94.3943 58.12 101.964 61.1008 108.138C62.597 111.238 64.5265 114.034 66.367 116.241C68.1978 118.436 69.9776 120.093 71.1938 120.882L72.0101 119.623C70.9738 118.951 69.3056 117.422 67.519 115.28C65.7422 113.149 63.8851 110.456 62.4516 107.486C59.5728 101.523 58.4786 94.6371 62.8315 88.8727L61.6344 87.9687ZM71.0957 120.806C71.4607 121.14 71.8804 121.459 72.3679 121.764L73.1639 120.493C72.7474 120.232 72.4011 119.967 72.1082 119.699L71.0957 120.806ZM72.3702 121.766C75.9163 123.969 80.0142 124.085 83.6541 123.301C87.2909 122.517 90.562 120.816 92.5496 119.247L91.6202 118.07C89.8099 119.499 86.748 121.1 83.338 121.835C79.9311 122.569 76.2686 122.422 73.1617 120.492L72.3702 121.766ZM92.5496 119.247C94.5027 117.706 97.0314 114.936 99.2955 112.071C101.559 109.207 103.623 106.168 104.614 104.062L103.256 103.423C102.339 105.372 100.361 108.304 98.1187 111.141C95.8764 113.978 93.4341 116.638 91.6203 118.07L92.5496 119.247ZM104.614 104.062C105.629 101.903 107.388 100.902 108.687 100.437L108.181 99.0246C106.654 99.5713 104.499 100.783 103.256 103.423L104.614 104.062ZM108.068 100.385C108.111 100.409 108.08 100.394 108.159 100.439L108.907 99.1387C108.897 99.1327 108.887 99.1269 108.867 99.1153C108.85 99.1051 108.826 99.0909 108.8 99.076L108.068 100.385ZM108.146 100.431C111.436 102.411 113.909 105.523 115.187 109.159L116.602 108.662C115.213 104.71 112.52 101.313 108.92 99.1461L108.146 100.431ZM115.187 109.16C115.812 110.936 116.567 112.67 117.45 114.342L118.776 113.642C117.929 112.036 117.203 110.37 116.602 108.662L115.187 109.16ZM117.45 114.342C119.413 118.063 120.715 122.099 121.321 126.266L122.805 126.05C122.175 121.717 120.821 117.517 118.776 113.642L117.45 114.342ZM121.321 126.266L122.532 134.591L124.016 134.375L122.805 126.05L121.321 126.266ZM122.532 134.591C123.327 140.049 125.028 145.319 127.468 150.253L128.812 149.588C126.438 144.786 124.787 139.667 124.016 134.375L122.532 134.591ZM127.468 150.253C129.731 154.832 130.672 159.953 130.186 165.039L131.68 165.182C132.192 159.818 131.199 154.417 128.812 149.588L127.468 150.253ZM130.186 165.039L128.23 185.517L129.724 185.66L131.68 165.182L130.186 165.039ZM128.23 185.517C127.982 188.115 130.025 190.361 132.633 190.361V188.861C130.909 188.861 129.56 187.377 129.724 185.66L128.23 185.517ZM132.225 190.24L132.567 190.462L133.383 189.204L133.041 188.982L132.225 190.24ZM132.778 190.556C134.412 191.001 135.88 191.032 137.161 190.824L136.921 189.343C135.848 189.517 134.596 189.497 133.172 189.109L132.778 190.556ZM137.791 190.084V166.19H136.291V190.084H137.791ZM137.791 166.19C137.791 162.215 136.998 158.281 135.458 154.617L134.075 155.198C135.538 158.678 136.291 162.414 136.291 166.19H137.791ZM135.517 154.908V154.395H134.017V154.908H135.517ZM135.517 154.395C135.517 152.141 134.128 150.29 132.243 149.281L131.535 150.603C133.038 151.408 134.017 152.805 134.017 154.395H135.517ZM132.244 149.281C131.633 148.953 131.6 148.208 132.053 147.824L131.083 146.68C129.84 147.733 129.973 149.763 131.534 150.602L132.244 149.281ZM132.052 147.825C132.365 147.56 132.908 147.569 133.279 147.927L134.319 146.845C133.47 146.03 132.063 145.852 131.084 146.679L132.052 147.825ZM133.279 147.926L136.243 150.779L137.283 149.698L134.319 146.845L133.279 147.926ZM136.243 150.779C137.729 152.212 140.243 151.801 141.117 149.885L139.753 149.262C139.325 150.2 138.054 150.442 137.283 149.699L136.243 150.779ZM141.117 149.886C141.487 149.078 141.678 148.2 141.678 147.313H140.178C140.178 147.985 140.033 148.649 139.753 149.262L141.117 149.886ZM141.678 147.313V139.826H140.178V147.313H141.678ZM141.678 139.826C141.678 134.1 140.357 128.452 137.82 123.319L136.476 123.984C138.911 128.91 140.178 134.331 140.178 139.826H141.678ZM137.82 123.319L132.855 113.275L131.511 113.94L136.476 123.984L137.82 123.319ZM132.855 113.275C131.691 110.92 131.13 108.314 131.103 105.661L129.603 105.676C129.632 108.529 130.236 111.361 131.511 113.94L132.855 113.275ZM131.103 105.661C131.056 100.963 128.21 96.7384 123.863 94.9321L123.287 96.3173C127.08 97.893 129.562 101.578 129.603 105.676L131.103 105.661ZM123.862 94.932L117.498 92.29L116.923 93.6754L123.287 96.3174L123.862 94.932ZM117.498 92.2899C116.964 92.0686 116.417 91.8752 115.859 91.7141L115.443 93.1553C115.945 93.3002 116.439 93.4748 116.924 93.6755L117.498 92.2899ZM115.86 91.7144L112.38 90.7054L111.962 92.146L115.442 93.155L115.86 91.7144ZM112.379 90.7052C111.999 90.5952 111.78 90.2595 111.804 89.9625L110.309 89.8409C110.22 90.9459 110.995 91.8662 111.962 92.1461L112.379 90.7052ZM111.805 89.9605C111.836 89.5555 112.186 89.2724 112.573 89.3118L112.725 87.8196C111.503 87.695 110.407 88.5959 110.309 89.8429L111.805 89.9605ZM112.573 89.3118C114.205 89.4779 117.088 89.7689 119.747 90.0359L119.897 88.5434C117.238 88.2765 114.356 87.9855 112.725 87.8195L112.573 89.3118ZM119.747 90.0359C123.767 90.4408 127.767 91.0177 131.737 91.7657L132.015 90.2917C128.003 89.5357 123.96 88.9526 119.897 88.5435L119.747 90.0359ZM131.737 91.7657L135.592 92.4927L135.87 91.0187L132.015 90.2917L131.737 91.7657ZM135.592 92.4927C140.013 93.326 144.551 93.326 148.971 92.4927L148.693 91.0187C144.457 91.8174 140.107 91.8174 135.87 91.0187L135.592 92.4927ZM148.971 92.4927L152.825 91.7657L152.547 90.2917L148.693 91.0187L148.971 92.4927ZM152.825 91.7657C156.796 91.0177 160.795 90.4408 164.815 90.0359L164.665 88.5435C160.602 88.9526 156.56 89.5357 152.547 90.2917L152.825 91.7657ZM164.815 90.0359C167.431 89.7719 170.263 89.4869 171.909 89.3199L171.757 87.8275C170.112 87.9945 167.281 88.2794 164.665 88.5435L164.815 90.0359ZM171.909 89.3199C172.306 89.2796 172.637 89.5104 172.726 89.7964L174.157 89.347C173.825 88.289 172.761 87.7258 171.757 87.8275L171.909 89.3199ZM172.726 89.7961C172.847 90.1823 172.628 90.5764 172.255 90.6843L172.673 92.1251C173.846 91.785 174.532 90.5431 174.158 89.3473L172.726 89.7961ZM172.255 90.6844L168.703 91.7144L169.121 93.155L172.673 92.125L172.255 90.6844ZM168.703 91.7144C168.145 91.8761 167.598 92.0683 167.062 92.2909L167.636 93.6764C168.122 93.4751 168.617 93.3013 169.121 93.155L168.703 91.7144ZM167.061 92.291L160.699 94.932L161.274 96.3174L167.636 93.6764L167.061 92.291ZM160.699 94.9321C156.381 96.7258 153.418 100.923 153.458 105.638L154.958 105.625C154.924 101.559 157.485 97.8916 161.275 96.3173L160.699 94.9321ZM153.458 105.638C153.48 108.286 152.88 110.903 151.707 113.276L153.052 113.94C154.328 111.357 154.982 108.509 154.958 105.625L153.458 105.638ZM151.708 113.275L146.742 123.32L148.086 123.985L153.052 113.94L151.708 113.275ZM146.742 123.32C144.205 128.453 142.886 134.1 142.886 139.826H144.386C144.386 134.331 145.652 128.911 148.086 123.985L146.742 123.32ZM142.886 139.826V147.313H144.386V139.826H142.886ZM142.886 147.313C142.886 148.2 143.077 149.077 143.444 149.884L144.81 149.263C144.531 148.65 144.386 147.985 144.386 147.313H142.886ZM143.445 149.885C144.319 151.802 146.833 152.21 148.32 150.779L147.28 149.698C146.507 150.442 145.237 150.2 144.809 149.262L143.445 149.885ZM148.32 150.779L151.284 147.926L150.244 146.845L147.28 149.698L148.32 150.779ZM151.284 147.927C151.656 147.569 152.198 147.56 152.509 147.824L153.479 146.679C152.5 145.851 151.092 146.03 150.244 146.845L151.284 147.927ZM152.51 147.824C152.963 148.208 152.93 148.952 152.319 149.281L153.029 150.602C154.59 149.763 154.725 147.733 153.478 146.679L152.51 147.824ZM152.32 149.281C150.435 150.29 149.046 152.141 149.046 154.395H150.546C150.546 152.805 151.525 151.408 153.028 150.603L152.32 149.281ZM149.046 154.395V154.908H150.546V154.395H149.046ZM149.104 154.617C147.565 158.281 146.771 162.215 146.771 166.19H148.271C148.271 162.415 149.025 158.678 150.487 155.198L149.104 154.617ZM146.771 166.19V190.084H148.271V166.19H146.771ZM147.401 190.824C148.682 191.032 150.15 191.001 151.784 190.556L151.39 189.109C149.966 189.497 148.714 189.517 147.641 189.343L147.401 190.824ZM151.994 190.462L152.337 190.24L151.522 188.981L151.179 189.203L151.994 190.462ZM151.93 190.361C154.538 190.361 156.581 188.115 156.331 185.517L154.838 185.66C155.003 187.377 153.654 188.861 151.93 188.861V190.361ZM156.332 185.517L154.377 165.039L152.883 165.182L154.838 185.66L156.332 185.517ZM154.377 165.039C153.89 159.953 154.832 154.833 157.095 150.253L155.751 149.588C153.364 154.418 152.37 159.818 152.883 165.182L154.377 165.039ZM157.095 150.253C159.534 145.319 161.237 140.049 162.03 134.591L160.546 134.375C159.777 139.666 158.124 144.786 155.751 149.588L157.095 150.253ZM162.03 134.591L163.242 126.266L161.758 126.05L160.546 134.375L162.03 134.591ZM163.242 126.265C163.836 122.172 165.05 118.189 166.994 114.564L165.672 113.855C163.635 117.654 162.374 121.808 161.758 126.05L163.242 126.265ZM166.994 114.564C167.928 112.823 168.722 111.015 169.374 109.159L167.959 108.662C167.332 110.446 166.569 112.183 165.672 113.855L166.994 114.564ZM169.374 109.159C170.653 105.523 173.127 102.411 176.416 100.431L175.642 99.1461C172.043 101.313 169.349 104.71 167.959 108.662L169.374 109.159ZM176.405 100.437L176.505 100.379L175.753 99.0819L175.653 99.1399L176.405 100.437ZM175.876 100.437C177.175 100.902 178.933 101.903 179.949 104.062L181.306 103.423C180.063 100.783 177.909 99.5714 176.382 99.0246L175.876 100.437ZM179.949 104.062C180.94 106.168 183.003 109.207 185.267 112.071C187.531 114.936 190.06 117.706 192.013 119.247L192.943 118.07C191.129 116.638 188.686 113.978 186.444 111.141C184.201 108.304 182.223 105.372 181.307 103.423L179.949 104.062ZM192.013 119.247C194 120.816 197.271 122.517 200.908 123.301C204.548 124.085 208.646 123.969 212.192 121.766L211.4 120.492C208.293 122.422 204.631 122.569 201.224 121.835C197.814 121.1 194.753 119.499 192.943 118.07L192.013 119.247ZM212.193 121.765C212.681 121.46 213.103 121.14 213.468 120.805L212.452 119.701C212.163 119.967 211.816 120.232 211.399 120.493L212.193 121.765ZM213.368 120.882C214.585 120.093 216.365 118.436 218.196 116.241C220.036 114.034 221.966 111.238 223.462 108.138C226.443 101.964 227.781 94.3943 222.928 87.9687L221.731 88.8727C226.084 94.6371 224.99 101.523 222.112 107.486C220.678 110.456 218.821 113.149 217.044 115.28C215.257 117.422 213.589 118.951 212.552 119.623L213.368 120.882Z" fill="#AFA4AF"/>
<path d="M212.86 120.318C207.098 123.904 199.254 109.835 204.493 103.672C205.51 102.475 207.369 102.448 208.488 103.549" stroke="#AFA4AF" stroke-width="1.5" stroke-linejoin="round"/>
<path d="M142.281 98.4744V97.5184C142.281 96.2494 141.254 95.2214 139.985 95.2214H132.673C132.557 95.2214 132.443 95.2454 132.337 95.2904L128.432 96.9714" stroke="#503850" stroke-width="1.5" stroke-linejoin="round"/>
<path fill-rule="evenodd" clip-rule="evenodd" d="M132.498 95.2215L128.863 97.9705C128.369 98.3435 127.667 98.2455 127.294 97.7525C126.921 97.2595 127.018 96.5565 127.512 96.1835C127.659 96.0725 127.831 96.0015 128.002 95.9725L132.498 95.2215Z" fill="#503850"/>
<path d="M142.281 98.4744V97.5184C142.281 96.2494 143.309 95.2214 144.578 95.2214H151.889C152.005 95.2214 152.119 95.2454 152.226 95.2904L156.13 96.9714" stroke="#503850" stroke-width="1.5" stroke-linejoin="round"/>
<path fill-rule="evenodd" clip-rule="evenodd" d="M152.064 95.2215L156.56 95.9725C157.17 96.0745 157.583 96.6515 157.481 97.2615C157.378 97.8715 156.801 98.2845 156.191 98.1825C156.008 98.1515 155.838 98.0755 155.7 97.9705L152.064 95.2215Z" fill="#503850"/>
<path fill-rule="evenodd" clip-rule="evenodd" d="M142.838 123.41H141.726C141.012 123.41 140.434 122.832 140.434 122.119V98.9149C140.434 98.2009 141.012 97.6229 141.726 97.6229H142.838C143.551 97.6229 144.129 98.2009 144.129 98.9149V122.119C144.129 122.832 143.551 123.41 142.838 123.41Z" fill="#503850"/>
<path fill-rule="evenodd" clip-rule="evenodd" d="M142.281 129.086V129.086C141.75 129.086 141.319 128.654 141.319 128.123V125.193C141.319 124.662 141.75 124.232 142.281 124.232C142.813 124.232 143.244 124.662 143.244 125.193V128.123C143.244 128.654 142.813 129.086 142.281 129.086Z" stroke="#503850" stroke-width="1.5" stroke-linejoin="round"/>
<path d="M142.281 124.23V123.296" stroke="#503850" stroke-width="1.5" stroke-linejoin="round"/>
<path d="M143.436 34.0437C140.356 30.9637 140.356 25.9697 143.436 22.8897" stroke="#AFA4AF" stroke-width="1.5"/>
</g>
</svg>
