<svg width="17" height="14" viewBox="0 0 17 14" fill="none" xmlns="http://www.w3.org/2000/svg">
<path fill-rule="evenodd" clip-rule="evenodd" d="M15.0923 2.06969L15.1042 1.99845C15.4475 1.71911 16.3133 0.862447 16.4277 0.461899C16.4772 0.288477 16.4185 0.228991 16.4181 0.223211L15.3122 0.700401L14.3865 1.12463C13.7478 0.437471 12.781 0 11.6996 0C9.77562 0 8.21558 1.38439 8.21558 3.09288C8.21558 3.40522 8.26165 3.97546 8.35839 4.25984C7.11939 4.22515 5.53126 3.70899 4.11697 2.98099C1.32747 1.54513 1.15291 0.551593 1.15291 0.551593C0.714949 1.02393 0.488625 2.58883 0.933013 3.81603C1.21716 4.60146 2.19441 5.30671 2.19441 5.30671C2.19441 5.30671 1.75754 5.31473 1.29994 5.15716C0.841786 5.00014 0.66906 4.84444 0.66906 4.84444C0.396847 5.51873 0.943108 6.72317 1.88677 7.58711C2.43688 8.09116 3.44185 8.40686 3.44185 8.40686L1.8719 8.45199C1.78379 10.002 5.07201 10.9226 5.07201 10.9226C4.10834 11.676 2.98994 12.1345 1.79114 12.1345C1.16998 12.1345 0.569757 12.0401 0 11.8673C1.58353 13.1927 3.61861 14.108 5.83193 13.9897C11.7031 13.6765 15.0174 8.54932 15.1751 3.51394L15.183 3.52419C15.183 3.52419 15.4578 3.38471 16.0461 2.78706C16.634 2.18978 17 1.4905 17 1.4905C17 1.4905 16.1204 1.87892 15.7513 1.98223C15.3827 2.08591 15.0923 2.06969 15.0923 2.06969Z" fill="#F2759D"/>
</svg>
