<svg width="16" height="19" viewBox="0 0 16 19" fill="none" xmlns="http://www.w3.org/2000/svg">
<path fill-rule="evenodd" clip-rule="evenodd" d="M16 7.68708C15.8487 7.7013 15.6955 7.71073 15.5402 7.71073C13.7924 7.71073 12.2566 6.79762 11.3631 5.41714V13.2274C11.3631 16.4153 8.81917 19 5.68157 19C2.54397 19 0 16.4153 0 13.2274C0 10.0396 2.54397 7.45488 5.68157 7.45488C5.80012 7.45488 5.91611 7.46578 6.03284 7.47317V10.3178C5.91611 10.3036 5.80139 10.282 5.68157 10.282C4.07959 10.282 2.78179 11.6007 2.78179 13.2282C2.78179 14.8556 4.07959 16.1744 5.68157 16.1744C7.28337 16.1744 8.6979 14.892 8.6979 13.2646C8.6979 13.2003 8.7259 0 8.7259 0H11.4019C11.6537 2.43102 13.5853 4.3496 16 4.52565V7.68708Z" fill="#F2759D"/>
</svg>
