<svg width="20" height="20" viewBox="0 0 20 20" fill="none" xmlns="http://www.w3.org/2000/svg">
<path fill-rule="evenodd" clip-rule="evenodd" d="M10 6.15385C12.1335 6.15385 13.8462 7.86654 13.8462 10C13.8462 12.1335 12.1335 13.8462 10 13.8462C7.86654 13.8462 6.15385 12.1335 6.15385 10C6.15385 7.86654 7.86654 6.15385 10 6.15385ZM10 4.61538C7.03423 4.61538 4.61538 7.03423 4.61538 10C4.61538 12.9658 7.03423 15.3846 10 15.3846C12.9658 15.3846 15.3846 12.9658 15.3846 10C15.3846 7.03423 12.9658 4.61538 10 4.61538ZM15.7692 3.07692C15.1321 3.07692 14.6154 3.59385 14.6154 4.23077C14.6154 4.86788 15.1321 5.38462 15.7692 5.38462C16.4063 5.38462 16.9231 4.86788 16.9231 4.23077C16.9231 3.59385 16.4063 3.07692 15.7692 3.07692ZM5.80538 1.53846H14.1946C16.5594 1.53846 18.4615 3.4375 18.4615 5.80538V14.1948C18.4615 16.5594 16.5625 18.4615 14.1946 18.4615H5.80538C3.44058 18.4615 1.53846 16.5625 1.53846 14.1948V5.80538C1.53846 3.44058 3.4375 1.53846 5.80538 1.53846ZM5.80538 0C2.60808 0 0 2.60827 0 5.80538V14.1948C0 17.3919 2.60808 20 5.80538 20H14.1946C17.3919 20 20 17.3919 20 14.1948V5.80538C20 2.60827 17.3919 0 14.1946 0H5.80538Z" fill="#F2759D"/>
</svg>
