<svg width="19" height="21" viewBox="0 0 19 21" fill="none" xmlns="http://www.w3.org/2000/svg">
<path fill-rule="evenodd" clip-rule="evenodd" d="M11.4125 14.049C11.736 14.049 11.875 14.2558 11.875 14.9007V16.5993C11.875 17.2441 11.736 17.4666 11.4125 17.4666C11.2279 17.4666 10.8753 17.3348 10.6875 17.1397V14.4373C10.8753 14.2447 11.2279 14.049 11.4125 14.049ZM15.4375 13.8644C15.7653 13.8644 16.0313 14.0973 16.0313 14.3833V15.2035H14.8438V14.3833C14.8438 14.0967 15.11 13.8644 15.4375 13.8644ZM15.455 12.9705C14.8565 12.9705 14.389 13.1664 14.0507 13.5363C13.8013 13.8093 13.6563 14.2556 13.6563 14.8344V16.7283C13.6563 17.3032 13.8158 17.7059 14.0645 17.9756C14.4037 18.3457 14.8701 18.5294 15.483 18.5294C16.095 18.5294 16.5769 18.336 16.9012 17.9431C17.0436 17.7696 17.135 17.5741 17.1749 17.3567C17.1855 17.2587 17.2188 16.992 17.2188 16.6764H16.0313V17.1697C16.0313 17.4563 15.7653 17.6886 15.4375 17.6886C15.11 17.6886 14.8438 17.4559 14.8438 17.1697V16.0588H17.2188V15.7029V14.8102C17.2188 14.2327 17.0825 13.8099 16.8374 13.5363C16.509 13.1664 16.0427 12.9705 15.455 12.9705ZM5.34384 12.9705V17.1C5.34384 17.5458 5.40345 17.845 5.48075 18.0409C5.61133 18.3583 5.87771 18.5294 6.25771 18.5294C6.69098 18.5294 7.2498 18.2118 7.71884 17.6861V18.5294H8.90634V12.9705H7.71884V16.8428C7.45769 17.2036 7.0775 17.4726 6.83981 17.4726C6.68539 17.4726 6.56096 17.405 6.53134 17.2277V12.9705H5.34384ZM9.5 11.1176V18.5294H10.6875V17.7572C11.0623 18.2397 11.5503 18.5294 11.9493 18.5294C12.3958 18.5294 12.7853 18.2794 12.9351 17.8006C13.0057 17.542 13.0578 17.3003 13.0625 16.7537V15.0551C13.0625 14.4449 12.9833 13.9851 12.9083 13.7258C12.7589 13.2433 12.3964 12.9736 11.9493 12.9705C11.3676 12.9662 11.1329 13.2794 10.6875 13.8198V11.1176H9.5ZM1.78134 11.1176V12.3396H2.96884V18.5294H4.15634V12.3396H5.34384V11.1176H1.78134ZM9.49423 8.64706H9.50596C9.50596 8.64706 13.4896 8.64725 16.1498 8.8449C16.5237 8.88811 17.3317 8.89431 18.0561 9.6663C18.6261 10.247 18.81 11.5808 18.81 11.5808C18.81 11.5808 19 12.5262 19 14.0889V15.5521C19 17.1147 18.81 18.0601 18.81 18.0601C18.81 18.0601 18.6261 19.394 18.0561 19.9746C17.3317 20.7465 16.5237 20.7529 16.1498 20.7962C13.4896 20.9938 9.5 21 9.5 21C9.5 21 4.55963 20.9504 3.03963 20.8022C2.61809 20.7219 1.66846 20.7464 0.944225 19.9806C0.374039 19.3938 0.190373 18.0601 0.190373 18.0601C0.190373 18.0601 0 17.1147 0 15.5521V14.0889C0 12.5262 0.190373 11.5808 0.190373 11.5808C0.190373 11.5808 0.374039 10.247 0.944225 9.6663C1.66846 8.89431 2.47652 8.88811 2.85056 8.8449C5.51056 8.64725 9.49423 8.64706 9.49423 8.64706ZM9.5 2.8529C9.41841 2.8529 9.34036 2.8715 9.26939 2.90367C9.19824 2.93564 9.13416 2.98156 9.08032 3.03873C9.02649 3.09589 8.9829 3.16371 8.95273 3.23889C8.92274 3.31427 8.90634 3.3974 8.90634 3.48382V5.21866C8.90634 5.3915 8.97266 5.54943 9.08032 5.66375C9.13416 5.72091 9.19824 5.76684 9.26939 5.79881C9.34036 5.83078 9.41841 5.84958 9.5 5.84958C9.58177 5.84958 9.66001 5.83078 9.73098 5.79881C9.94371 5.7027 10.0938 5.47812 10.0938 5.21866V3.48382C10.0938 3.13794 9.82654 2.8529 9.5 2.8529ZM11.875 1.85284H13.0625V5.55873C13.0923 5.72556 13.264 5.79997 13.4244 5.79997C13.6679 5.79997 13.9771 5.5037 14.25 5.17642V1.85284H15.4375V6.79402H14.25V5.94123C13.769 6.42915 13.3594 6.7946 12.8192 6.776C12.4271 6.7636 12.1542 6.61517 12.0177 6.3187C11.9346 6.14585 11.875 5.8674 11.875 5.4599V1.85284ZM9.5 1.85284C10.0285 1.85284 10.5511 2.0191 10.8836 2.4392C11.1388 2.74187 11.2813 3.22998 11.2813 3.87233V4.77473C11.2813 5.41708 11.1631 5.86179 10.9136 6.16446C10.5813 6.57816 10.0285 6.79402 9.5 6.79402C8.97154 6.79402 8.43172 6.57816 8.09922 6.16446C7.84402 5.86179 7.71884 5.41708 7.71884 4.77473V3.87834C7.71884 3.23599 7.85538 2.74187 8.11672 2.4392C8.44923 2.0191 8.90057 1.85284 9.5 1.85284ZM3.5625 0H4.98787L5.9375 2.47059L6.88731 0H8.3125L6.53134 4.32343V6.79402H5.34384V4.31743C4.98769 3.32299 3.80615 0.623751 3.5625 0Z" fill="#F2759D"/>
</svg>
