<svg width="60" height="60" viewBox="0 0 60 60" fill="none" xmlns="http://www.w3.org/2000/svg">
<path fill-rule="evenodd" clip-rule="evenodd" d="M33.9611 36.8253C34.3507 37.21 34.8702 37.4023 35.3897 37.4023C35.9091 37.4023 36.4286 37.21 36.8182 36.8253C37.5975 36.0559 37.5975 34.7737 36.8182 34.0043L32.078 29.3241V19.1301C32.078 18.0402 31.1689 17.1426 30.065 17.1426C28.9611 17.1426 28.052 18.0402 28.052 19.1301V30.0934C28.052 30.6063 28.2468 31.1192 28.6364 31.5039L33.9611 36.8253Z" fill="#50394F"/>
<mask id="mask0" mask-type="alpha" maskUnits="userSpaceOnUse" x="0" y="0" width="60" height="60">
<path fill-rule="evenodd" clip-rule="evenodd" d="M0 0H59.9997V59.9999H0V0Z" fill="white"/>
</mask>
<g mask="url(#mask0)">
<path fill-rule="evenodd" clip-rule="evenodd" d="M51.2208 8.77895C45.5366 3.09474 38.084 0 30.1267 0C29.684 0 29.2419 0.126316 28.8635 0.378947C28.3576 0.757895 28.0419 1.32632 28.0419 1.95789V7.76842C28.0419 8.84211 28.9261 9.72632 29.9998 9.72632C31.0741 9.72632 31.9577 8.84211 31.9577 7.76842V3.97895C37.5162 4.35789 42.6945 6.56842 46.9261 10.2316L44.2734 12.9474C43.5162 13.7053 43.5162 14.9684 44.2734 15.7263C44.653 16.1053 45.1576 16.2947 45.6629 16.2947C46.1682 16.2947 46.6741 16.1053 47.0524 15.7263L49.7057 13.0737C53.3056 17.3053 55.5162 22.4842 55.8945 28.0421H52.1682C51.0951 28.0421 50.2103 28.9263 50.2103 30C50.2103 31.0737 51.0951 31.9579 52.1682 31.9579H55.8945C55.4524 37.5158 53.3056 42.6947 49.7057 46.9263L47.0524 44.2737C46.2945 43.5158 45.0313 43.5158 44.2734 44.2737C43.5162 45.0316 43.5162 46.2947 44.2734 47.0526L46.9261 49.7053C42.5688 53.4316 37.3261 55.5158 31.9577 55.8947V52.1684C31.9577 51.0947 31.0741 50.2105 29.9998 50.2105C28.9261 50.2105 28.0419 51.0947 28.0419 52.1684V55.8947C22.6734 55.5158 17.4313 53.4316 13.0741 49.7053L15.7261 47.0526C16.484 46.2947 16.484 45.0316 15.7261 44.2737C14.9688 43.5158 13.7057 43.5158 12.9471 44.2737L10.2945 46.9263C6.63133 42.7579 4.48397 37.5158 4.04186 31.9579H7.83133C8.90502 31.9579 9.78923 31.0737 9.78923 30C9.78923 28.9263 8.90502 28.0421 7.83133 28.0421H4.04186C4.48397 21.8526 7.1366 16.0421 11.5577 11.6211L12.6945 10.4842V16.6737C12.6945 17.7474 13.5787 18.6316 14.653 18.6316C15.7261 18.6316 16.6103 17.7474 16.6103 16.6737V5.68421C16.6103 4.61053 15.7261 3.72632 14.653 3.72632H3.72607C2.65302 3.72632 1.76818 4.61053 1.76818 5.68421C1.76818 6.75789 2.65302 7.64211 3.72607 7.64211H9.91618L8.7787 8.77895C3.09449 14.4632 -0.000244141 21.9789 -0.000244141 30C-0.000244141 38.0211 3.09449 45.5368 8.7787 51.2211C14.653 57.0947 22.2945 60 29.9998 60C37.7057 60 45.3471 57.0947 51.2208 51.2211C56.905 45.5368 59.9998 38.0211 59.9998 30C59.9998 21.9789 56.905 14.4632 51.2208 8.77895Z" fill="#50394F"/>
</g>
</svg>
