<svg width="61" height="60" viewBox="0 0 61 60" fill="none" xmlns="http://www.w3.org/2000/svg">
<mask id="mask0" mask-type="alpha" maskUnits="userSpaceOnUse" x="0" y="0" width="61" height="60">
<path fill-rule="evenodd" clip-rule="evenodd" d="M0 0.0625H60.5515V59.9996H0V0.0625Z" fill="white"/>
</mask>
<g mask="url(#mask0)">
<path fill-rule="evenodd" clip-rule="evenodd" d="M6.33297 37.5257L17.3918 26.5245C22.829 21.1157 29.5623 16.9886 36.8645 14.5893L39.4519 13.7391L47.0282 21.2766L43.0536 30.9802C41.97 33.6277 40.3888 35.9964 38.3552 38.02L22.5919 53.7005C20.9175 55.3668 18.6899 56.2845 16.3212 56.2845C13.9525 56.2845 11.725 55.3668 10.0505 53.7005L6.33297 50.0023C4.65787 48.3359 3.73533 46.12 3.73533 43.7636C3.73533 41.4073 4.65719 39.1914 6.33297 37.5257ZM49.1714 5.07864C50.0446 4.20932 51.192 3.775 52.34 3.775C53.4873 3.775 54.6347 4.20932 55.5086 5.07864C57.2556 6.81659 57.2556 9.64409 55.5086 11.3827L48.9363 17.9207L42.5999 11.6166L49.1714 5.07864ZM7.40904 56.3275C9.7901 58.6955 12.9546 59.9998 16.3212 59.9998C19.6879 59.9998 22.8523 58.6955 25.2334 56.3275L40.9961 40.6464C43.3833 38.2709 45.2393 35.4898 46.5128 32.3807L51.2077 20.9152L58.1494 14.0098C61.3522 10.823 61.3522 5.63841 58.1494 2.45159C54.9465 -0.733182 49.7348 -0.734545 46.5306 2.45159L38.9515 9.99114L35.6925 11.0616C27.8392 13.6416 20.5974 18.0802 14.7496 23.8968L3.69147 34.8986C1.3111 37.2673 -6.10352e-05 40.4152 -6.10352e-05 43.7636C-6.10352e-05 47.1134 1.3111 50.2614 3.69147 52.6293L7.40904 56.3275Z" fill="#50394F"/>
</g>
<path fill-rule="evenodd" clip-rule="evenodd" d="M13.0623 39.7214L15.1537 37.6301L21.3712 43.848L19.2799 45.9386C18.7479 46.4718 17.8805 46.4718 17.3472 45.9386L13.063 41.6552C12.5291 41.122 12.5291 40.2546 13.0623 39.7214ZM19.6793 33.1041L25.8968 39.3213L22.3221 42.8965L16.1045 36.6786L19.6793 33.1041ZM22.7215 30.0613C23.2547 29.5281 24.1229 29.5281 24.6548 30.0613L28.939 34.3453C29.1952 34.6009 29.3365 34.9445 29.3365 35.3123C29.3365 35.6794 29.1952 36.023 28.939 36.2792L26.8477 38.3705L20.6301 32.1532L22.7215 30.0613ZM14.7549 48.5301C15.7367 49.5105 17.0244 50 18.3129 50C19.6013 50 20.889 49.5105 21.8702 48.5294L31.5293 38.8694C32.4775 37.922 33 36.6585 33 35.3123C33 33.9661 32.4788 32.7026 31.53 31.7545L27.2458 27.4705C25.2842 25.5104 22.0934 25.509 20.1305 27.4712L10.4707 37.1305C8.50978 39.092 8.50978 42.284 10.4707 44.2461L14.7549 48.5301Z" fill="#50394F"/>
</svg>
